<?xml version="1.0" encoding="utf-8"?><svg xmlns="http://www.w3.org/2000/svg" width="1733" height="1081"><g id="Bratislavský kraj"><polygon points="161.72899746863615,606.932821457855,202.1612468357952,583.5892514017836,242.59349620295424,606.932821457855,242.59349620295424,653.6199615699977,202.1612468357952,676.9635316260691,161.72899746863615,653.6199615699977,161.72899746863615,606.932821457855" fill="rgb(112, 245, 138)"/><polygon points="121.2967481014771,676.963531626069,161.72899746863615,653.6199615699976,202.1612468357952,676.963531626069,202.1612468357952,723.6506717382117,161.72899746863615,746.9942417942831,121.2967481014771,723.6506717382117,121.2967481014771,676.963531626069" fill="rgb(112, 245, 138)"/><polygon points="161.72899746863615,746.9942417942831,202.1612468357952,723.6506717382117,242.59349620295424,746.9942417942831,242.59349620295424,793.6813819064258,202.1612468357952,817.0249519624972,161.72899746863615,793.6813819064258,161.72899746863615,746.9942417942831" fill="rgb(112, 245, 138)"/><polygon points="202.16124683579517,536.902111289641,242.5934962029542,513.5585412335696,283.02574557011326,536.902111289641,283.02574557011326,583.5892514017837,242.5934962029542,606.9328214578551,202.16124683579517,583.5892514017837,202.16124683579517,536.902111289641" fill="rgb(112, 245, 138)"/><polygon points="242.5934962029542,606.932821457855,283.02574557011326,583.5892514017836,323.4579949372723,606.932821457855,323.4579949372723,653.6199615699977,283.02574557011326,676.9635316260691,242.5934962029542,653.6199615699977,242.5934962029542,606.932821457855" fill="rgb(112, 245, 138)"/><polygon points="202.16124683579517,676.963531626069,242.5934962029542,653.6199615699976,283.02574557011326,676.963531626069,283.02574557011326,723.6506717382117,242.5934962029542,746.9942417942831,202.16124683579517,723.6506717382117,202.16124683579517,676.963531626069" fill="rgb(112, 245, 138)"/><polygon points="242.5934962029542,746.9942417942831,283.02574557011326,723.6506717382117,323.4579949372723,746.9942417942831,323.4579949372723,793.6813819064258,283.02574557011326,817.0249519624972,242.5934962029542,793.6813819064258,242.5934962029542,746.9942417942831" fill="rgb(112, 245, 138)"/><polygon points="202.16124683579517,817.0249519624971,242.5934962029542,793.6813819064257,283.02574557011326,817.0249519624971,283.02574557011326,863.7120920746398,242.5934962029542,887.0556621307112,202.16124683579517,863.7120920746398,202.16124683579517,817.0249519624971" fill="rgb(112, 245, 138)"/><polygon points="283.02574557011326,536.902111289641,323.4579949372723,513.5585412335696,363.89024430443135,536.902111289641,363.89024430443135,583.5892514017837,323.4579949372723,606.9328214578551,283.02574557011326,583.5892514017837,283.02574557011326,536.902111289641" fill="rgb(112, 245, 138)"/><polygon points="323.4579949372723,606.932821457855,363.89024430443135,583.5892514017836,404.3224936715904,606.932821457855,404.3224936715904,653.6199615699977,363.89024430443135,676.9635316260691,323.4579949372723,653.6199615699977,323.4579949372723,606.932821457855" fill="rgb(112, 245, 138)"/><polygon points="283.02574557011326,676.963531626069,323.4579949372723,653.6199615699976,363.89024430443135,676.963531626069,363.89024430443135,723.6506717382117,323.4579949372723,746.9942417942831,283.02574557011326,723.6506717382117,283.02574557011326,676.963531626069" fill="rgb(112, 245, 138)"/><polygon points="323.4579949372723,746.9942417942831,363.89024430443135,723.6506717382117,404.3224936715904,746.9942417942831,404.3224936715904,793.6813819064258,363.89024430443135,817.0249519624972,323.4579949372723,793.6813819064258,323.4579949372723,746.9942417942831" fill="rgb(112, 245, 138)"/><polygon points="283.02574557011326,817.0249519624971,323.4579949372723,793.6813819064257,363.89024430443135,817.0249519624971,363.89024430443135,863.7120920746398,323.4579949372723,887.0556621307112,283.02574557011326,863.7120920746398,283.02574557011326,817.0249519624971" fill="rgb(112, 245, 138)"/><polygon points="121.2967481014771,536.902111289641,161.72899746863615,513.5585412335696,202.1612468357952,536.902111289641,202.1612468357952,583.5892514017837,161.72899746863615,606.9328214578551,121.2967481014771,583.5892514017837,121.2967481014771,536.902111289641" fill="rgb(112, 245, 138)"/></g><g id="Trnavský kraj"><polygon points="363.89024430443135,676.963531626069,404.3224936715904,653.6199615699976,444.75474303874944,676.963531626069,444.75474303874944,723.6506717382117,404.3224936715904,746.9942417942831,363.89024430443135,723.6506717382117,363.89024430443135,676.963531626069" fill="rgb(245, 233, 112)"/><polygon points="323.4579949372723,887.0556621307111,363.89024430443135,863.7120920746397,404.3224936715904,887.0556621307111,404.3224936715904,933.7428022428538,363.89024430443135,957.0863722989252,323.4579949372723,933.7428022428538,323.4579949372723,887.0556621307111" fill="rgb(245, 233, 112)"/><polygon points="363.89024430443135,536.902111289641,404.3224936715904,513.5585412335696,444.75474303874944,536.902111289641,444.75474303874944,583.5892514017837,404.3224936715904,606.9328214578551,363.89024430443135,583.5892514017837,363.89024430443135,536.902111289641" fill="rgb(245, 233, 112)"/><polygon points="404.3224936715904,606.932821457855,444.75474303874944,583.5892514017836,485.1869924059085,606.932821457855,485.1869924059085,653.6199615699977,444.75474303874944,676.9635316260691,404.3224936715904,653.6199615699977,404.3224936715904,606.932821457855" fill="rgb(245, 233, 112)"/><polygon points="404.3224936715904,746.9942417942831,444.75474303874944,723.6506717382117,485.1869924059085,746.9942417942831,485.1869924059085,793.6813819064258,444.75474303874944,817.0249519624972,404.3224936715904,793.6813819064258,404.3224936715904,746.9942417942831" fill="rgb(245, 233, 112)"/><polygon points="363.89024430443135,817.0249519624971,404.3224936715904,793.6813819064257,444.75474303874944,817.0249519624971,444.75474303874944,863.7120920746398,404.3224936715904,887.0556621307112,363.89024430443135,863.7120920746398,363.89024430443135,817.0249519624971" fill="rgb(245, 233, 112)"/><polygon points="404.3224936715904,887.0556621307111,444.75474303874944,863.7120920746397,485.1869924059085,887.0556621307111,485.1869924059085,933.7428022428538,444.75474303874944,957.0863722989252,404.3224936715904,933.7428022428538,404.3224936715904,887.0556621307111" fill="rgb(245, 233, 112)"/><polygon points="444.7547430387494,676.963531626069,485.1869924059084,653.6199615699976,525.6192417730674,676.963531626069,525.6192417730674,723.6506717382117,485.1869924059084,746.9942417942831,444.7547430387494,723.6506717382117,444.7547430387494,676.963531626069" fill="rgb(245, 233, 112)"/><polygon points="444.7547430387494,817.0249519624971,485.1869924059084,793.6813819064257,525.6192417730674,817.0249519624971,525.6192417730674,863.7120920746398,485.1869924059084,887.0556621307112,444.7547430387494,863.7120920746398,444.7547430387494,817.0249519624971" fill="rgb(245, 233, 112)"/><polygon points="323.4579949372723,466.8714011214269,363.89024430443135,443.5278310653556,404.3224936715904,466.8714011214269,404.3224936715904,513.5585412335696,363.89024430443135,536.902111289641,323.4579949372723,513.5585412335696,323.4579949372723,466.8714011214269" fill="rgb(245, 233, 112)"/><polygon points="242.5934962029542,466.8714011214269,283.02574557011326,443.5278310653556,323.4579949372723,466.8714011214269,323.4579949372723,513.5585412335696,283.02574557011326,536.902111289641,242.5934962029542,513.5585412335696,242.5934962029542,466.8714011214269" fill="rgb(245, 233, 112)"/></g><g id="Trenčiansky kraj"><polygon points="646.9159898745446,606.932821457855,687.3482392417036,583.5892514017836,727.7804886088626,606.932821457855,727.7804886088626,653.6199615699977,687.3482392417036,676.9635316260691,646.9159898745446,653.6199615699977,646.9159898745446,606.932821457855" fill="rgb(112, 245, 188)"/><polygon points="404.3224936715904,466.8714011214269,444.75474303874944,443.5278310653556,485.1869924059085,466.8714011214269,485.1869924059085,513.5585412335696,444.75474303874944,536.902111289641,404.3224936715904,513.5585412335696,404.3224936715904,466.8714011214269" fill="rgb(112, 245, 188)"/><polygon points="485.1869924059085,466.8714011214269,525.6192417730675,443.5278310653556,566.0514911402265,466.8714011214269,566.0514911402265,513.5585412335696,525.6192417730675,536.902111289641,485.1869924059085,513.5585412335696,485.1869924059085,466.8714011214269" fill="rgb(112, 245, 188)"/><polygon points="444.7547430387494,536.902111289641,485.1869924059084,513.5585412335696,525.6192417730674,536.902111289641,525.6192417730674,583.5892514017837,485.1869924059084,606.9328214578551,444.7547430387494,583.5892514017837,444.7547430387494,536.902111289641" fill="rgb(112, 245, 188)"/><polygon points="566.0514911402266,326.8099807849988,606.4837405073856,303.4664107289275,646.9159898745446,326.8099807849988,646.9159898745446,373.49712089714154,606.4837405073856,396.84069095321286,566.0514911402266,373.49712089714154,566.0514911402266,326.8099807849988" fill="rgb(112, 245, 188)"/><polygon points="525.6192417730675,396.84069095321286,566.0514911402265,373.49712089714154,606.4837405073855,396.84069095321286,606.4837405073855,443.5278310653556,566.0514911402265,466.8714011214269,525.6192417730675,443.5278310653556,525.6192417730675,396.84069095321286" fill="rgb(112, 245, 188)"/><polygon points="566.0514911402266,466.8714011214269,606.4837405073856,443.5278310653556,646.9159898745446,466.8714011214269,646.9159898745446,513.5585412335696,606.4837405073856,536.902111289641,566.0514911402266,513.5585412335696,566.0514911402266,466.8714011214269" fill="rgb(112, 245, 188)"/><polygon points="606.4837405073856,396.84069095321286,646.9159898745446,373.49712089714154,687.3482392417036,396.84069095321286,687.3482392417036,443.5278310653556,646.9159898745446,466.8714011214269,606.4837405073856,443.5278310653556,606.4837405073856,396.84069095321286" fill="rgb(112, 245, 188)"/><polygon points="646.9159898745446,466.8714011214269,687.3482392417036,443.5278310653556,727.7804886088626,466.8714011214269,727.7804886088626,513.5585412335696,687.3482392417036,536.902111289641,646.9159898745446,513.5585412335696,646.9159898745446,466.8714011214269" fill="rgb(112, 245, 188)"/><polygon points="606.4837405073856,536.902111289641,646.9159898745446,513.5585412335696,687.3482392417036,536.902111289641,687.3482392417036,583.5892514017837,646.9159898745446,606.9328214578551,606.4837405073856,583.5892514017837,606.4837405073856,536.902111289641" fill="rgb(112, 245, 188)"/><polygon points="687.3482392417037,536.902111289641,727.7804886088627,513.5585412335696,768.2127379760217,536.902111289641,768.2127379760217,583.5892514017837,727.7804886088627,606.9328214578551,687.3482392417037,583.5892514017837,687.3482392417037,536.902111289641" fill="rgb(112, 245, 188)"/><polygon points="525.6192417730675,536.902111289641,566.0514911402265,513.5585412335696,606.4837405073855,536.902111289641,606.4837405073855,583.5892514017837,566.0514911402265,606.9328214578551,525.6192417730675,583.5892514017837,525.6192417730675,536.902111289641" fill="rgb(112, 245, 188)"/></g><g id="Nitriansky kraj"><polygon points="485.1869924059085,606.932821457855,525.6192417730675,583.5892514017836,566.0514911402265,606.932821457855,566.0514911402265,653.6199615699977,525.6192417730675,676.9635316260691,485.1869924059085,653.6199615699977,485.1869924059085,606.932821457855" fill="rgb(214, 245, 112)"/><polygon points="687.3482392417037,817.0249519624971,727.7804886088627,793.6813819064257,768.2127379760217,817.0249519624971,768.2127379760217,863.7120920746398,727.7804886088627,887.0556621307112,687.3482392417037,863.7120920746398,687.3482392417037,817.0249519624971" fill="rgb(214, 245, 112)"/><polygon points="485.1869924059085,887.0556621307111,525.6192417730675,863.7120920746397,566.0514911402265,887.0556621307111,566.0514911402265,933.7428022428538,525.6192417730675,957.0863722989252,485.1869924059085,933.7428022428538,485.1869924059085,887.0556621307111" fill="rgb(214, 245, 112)"/><polygon points="646.9159898745446,887.0556621307111,687.3482392417036,863.7120920746397,727.7804886088626,887.0556621307111,727.7804886088626,933.7428022428538,687.3482392417036,957.0863722989252,646.9159898745446,933.7428022428538,646.9159898745446,887.0556621307111" fill="rgb(214, 245, 112)"/><polygon points="566.0514911402266,606.932821457855,606.4837405073856,583.5892514017836,646.9159898745446,606.932821457855,646.9159898745446,653.6199615699977,606.4837405073856,676.9635316260691,566.0514911402266,653.6199615699977,566.0514911402266,606.932821457855" fill="rgb(214, 245, 112)"/><polygon points="525.6192417730675,676.963531626069,566.0514911402265,653.6199615699976,606.4837405073855,676.963531626069,606.4837405073855,723.6506717382117,566.0514911402265,746.9942417942831,525.6192417730675,723.6506717382117,525.6192417730675,676.963531626069" fill="rgb(214, 245, 112)"/><polygon points="566.0514911402266,746.9942417942831,606.4837405073856,723.6506717382117,646.9159898745446,746.9942417942831,646.9159898745446,793.6813819064258,606.4837405073856,817.0249519624972,566.0514911402266,793.6813819064258,566.0514911402266,746.9942417942831" fill="rgb(214, 245, 112)"/><polygon points="525.6192417730675,817.0249519624971,566.0514911402265,793.6813819064257,606.4837405073855,817.0249519624971,606.4837405073855,863.7120920746398,566.0514911402265,887.0556621307112,525.6192417730675,863.7120920746398,525.6192417730675,817.0249519624971" fill="rgb(214, 245, 112)"/><polygon points="566.0514911402266,887.0556621307111,606.4837405073856,863.7120920746397,646.9159898745446,887.0556621307111,646.9159898745446,933.7428022428538,606.4837405073856,957.0863722989252,566.0514911402266,933.7428022428538,566.0514911402266,887.0556621307111" fill="rgb(214, 245, 112)"/><polygon points="606.4837405073856,676.963531626069,646.9159898745446,653.6199615699976,687.3482392417036,676.963531626069,687.3482392417036,723.6506717382117,646.9159898745446,746.9942417942831,606.4837405073856,723.6506717382117,606.4837405073856,676.963531626069" fill="rgb(214, 245, 112)"/><polygon points="646.9159898745446,746.9942417942831,687.3482392417036,723.6506717382117,727.7804886088626,746.9942417942831,727.7804886088626,793.6813819064258,687.3482392417036,817.0249519624972,646.9159898745446,793.6813819064258,646.9159898745446,746.9942417942831" fill="rgb(214, 245, 112)"/><polygon points="606.4837405073856,817.0249519624971,646.9159898745446,793.6813819064257,687.3482392417036,817.0249519624971,687.3482392417036,863.7120920746398,646.9159898745446,887.0556621307112,606.4837405073856,863.7120920746398,606.4837405073856,817.0249519624971" fill="rgb(214, 245, 112)"/><polygon points="485.1869924059085,746.9942417942831,525.6192417730675,723.6506717382117,566.0514911402265,746.9942417942831,566.0514911402265,793.6813819064258,525.6192417730675,817.0249519624972,485.1869924059085,793.6813819064258,485.1869924059085,746.9942417942831" fill="rgb(214, 245, 112)"/><polygon points="727.7804886088627,746.9942417942831,768.2127379760217,723.6506717382117,808.6449873431807,746.9942417942831,808.6449873431807,793.6813819064258,768.2127379760217,817.0249519624972,727.7804886088627,793.6813819064258,727.7804886088627,746.9942417942831" fill="rgb(214, 245, 112)"/></g><g id="Žilinský kraj"><polygon points="646.9159898745446,326.8099807849988,687.3482392417036,303.4664107289275,727.7804886088626,326.8099807849988,727.7804886088626,373.49712089714154,687.3482392417036,396.84069095321286,646.9159898745446,373.49712089714154,646.9159898745446,326.8099807849988" fill="rgb(245, 240, 112)"/><polygon points="687.3482392417037,256.7792706167848,727.7804886088627,233.43570056071349,768.2127379760217,256.7792706167848,768.2127379760217,303.46641072892754,727.7804886088627,326.80998078499886,687.3482392417037,303.46641072892754,687.3482392417037,256.7792706167848" fill="rgb(245, 240, 112)"/><polygon points="727.7804886088627,326.8099807849988,768.2127379760217,303.4664107289275,808.6449873431807,326.8099807849988,808.6449873431807,373.49712089714154,768.2127379760217,396.84069095321286,727.7804886088627,373.49712089714154,727.7804886088627,326.8099807849988" fill="rgb(245, 240, 112)"/><polygon points="687.3482392417037,396.84069095321286,727.7804886088627,373.49712089714154,768.2127379760217,396.84069095321286,768.2127379760217,443.5278310653556,727.7804886088627,466.8714011214269,687.3482392417037,443.5278310653556,687.3482392417037,396.84069095321286" fill="rgb(245, 240, 112)"/><polygon points="727.7804886088627,466.8714011214269,768.2127379760217,443.5278310653556,808.6449873431807,466.8714011214269,808.6449873431807,513.5585412335696,768.2127379760217,536.902111289641,727.7804886088627,513.5585412335696,727.7804886088627,466.8714011214269" fill="rgb(245, 240, 112)"/><polygon points="808.6449873431808,326.8099807849988,849.0772367103398,303.4664107289275,889.5094860774988,326.8099807849988,889.5094860774988,373.49712089714154,849.0772367103398,396.84069095321286,808.6449873431808,373.49712089714154,808.6449873431808,326.8099807849988" fill="rgb(245, 240, 112)"/><polygon points="768.2127379760218,396.84069095321286,808.6449873431808,373.49712089714154,849.0772367103398,396.84069095321286,849.0772367103398,443.5278310653556,808.6449873431808,466.8714011214269,768.2127379760218,443.5278310653556,768.2127379760218,396.84069095321286" fill="rgb(245, 240, 112)"/><polygon points="808.6449873431808,466.8714011214269,849.0772367103398,443.5278310653556,889.5094860774988,466.8714011214269,889.5094860774988,513.5585412335696,849.0772367103398,536.902111289641,808.6449873431808,513.5585412335696,808.6449873431808,466.8714011214269" fill="rgb(245, 240, 112)"/><polygon points="768.2127379760218,536.902111289641,808.6449873431808,513.5585412335696,849.0772367103398,536.902111289641,849.0772367103398,583.5892514017837,808.6449873431808,606.9328214578551,768.2127379760218,583.5892514017837,768.2127379760218,536.902111289641" fill="rgb(245, 240, 112)"/><polygon points="849.0772367103399,256.7792706167848,889.5094860774989,233.43570056071349,929.9417354446579,256.7792706167848,929.9417354446579,303.46641072892754,889.5094860774989,326.80998078499886,849.0772367103399,303.46641072892754,849.0772367103399,256.7792706167848" fill="rgb(245, 240, 112)"/><polygon points="889.5094860774989,326.8099807849988,929.9417354446579,303.4664107289275,970.3739848118169,326.8099807849988,970.3739848118169,373.49712089714154,929.9417354446579,396.84069095321286,889.5094860774989,373.49712089714154,889.5094860774989,326.8099807849988" fill="rgb(245, 240, 112)"/><polygon points="849.0772367103399,396.84069095321286,889.5094860774989,373.49712089714154,929.9417354446579,396.84069095321286,929.9417354446579,443.5278310653556,889.5094860774989,466.8714011214269,849.0772367103399,443.5278310653556,849.0772367103399,396.84069095321286" fill="rgb(245, 240, 112)"/><polygon points="889.5094860774989,466.8714011214269,929.9417354446579,443.5278310653556,970.3739848118169,466.8714011214269,970.3739848118169,513.5585412335696,929.9417354446579,536.902111289641,889.5094860774989,513.5585412335696,889.5094860774989,466.8714011214269" fill="rgb(245, 240, 112)"/><polygon points="929.9417354446579,396.84069095321286,970.3739848118169,373.49712089714154,1010.8062341789758,396.84069095321286,1010.8062341789758,443.5278310653556,970.3739848118169,466.8714011214269,929.9417354446579,443.5278310653556,929.9417354446579,396.84069095321286" fill="rgb(245, 240, 112)"/></g><g id="Banskobystrický kraj"><polygon points="889.5094860774989,746.9942417942831,929.9417354446579,723.6506717382117,970.3739848118169,746.9942417942831,970.3739848118169,793.6813819064258,929.9417354446579,817.0249519624972,889.5094860774989,793.6813819064258,889.5094860774989,746.9942417942831" fill="rgb(112, 245, 195)"/><polygon points="727.7804886088627,606.932821457855,768.2127379760217,583.5892514017836,808.6449873431807,606.932821457855,808.6449873431807,653.6199615699977,768.2127379760217,676.9635316260691,727.7804886088627,653.6199615699977,727.7804886088627,606.932821457855" fill="rgb(112, 245, 195)"/><polygon points="808.6449873431808,606.932821457855,849.0772367103398,583.5892514017836,889.5094860774988,606.932821457855,889.5094860774988,653.6199615699977,849.0772367103398,676.9635316260691,808.6449873431808,653.6199615699977,808.6449873431808,606.932821457855" fill="rgb(112, 245, 195)"/><polygon points="768.2127379760218,676.963531626069,808.6449873431808,653.6199615699976,849.0772367103398,676.963531626069,849.0772367103398,723.6506717382117,808.6449873431808,746.9942417942831,768.2127379760218,723.6506717382117,768.2127379760218,676.963531626069" fill="rgb(112, 245, 195)"/><polygon points="808.6449873431808,746.9942417942831,849.0772367103398,723.6506717382117,889.5094860774988,746.9942417942831,889.5094860774988,793.6813819064258,849.0772367103398,817.0249519624972,808.6449873431808,793.6813819064258,808.6449873431808,746.9942417942831" fill="rgb(112, 245, 195)"/><polygon points="849.0772367103399,536.902111289641,889.5094860774989,513.5585412335696,929.9417354446579,536.902111289641,929.9417354446579,583.5892514017837,889.5094860774989,606.9328214578551,849.0772367103399,583.5892514017837,849.0772367103399,536.902111289641" fill="rgb(112, 245, 195)"/><polygon points="889.5094860774989,606.932821457855,929.9417354446579,583.5892514017836,970.3739848118169,606.932821457855,970.3739848118169,653.6199615699977,929.9417354446579,676.9635316260691,889.5094860774989,653.6199615699977,889.5094860774989,606.932821457855" fill="rgb(112, 245, 195)"/><polygon points="849.0772367103399,676.963531626069,889.5094860774989,653.6199615699976,929.9417354446579,676.963531626069,929.9417354446579,723.6506717382117,889.5094860774989,746.9942417942831,849.0772367103399,723.6506717382117,849.0772367103399,676.963531626069" fill="rgb(112, 245, 195)"/><polygon points="929.9417354446579,536.902111289641,970.3739848118169,513.5585412335696,1010.8062341789758,536.902111289641,1010.8062341789758,583.5892514017837,970.3739848118169,606.9328214578551,929.9417354446579,583.5892514017837,929.9417354446579,536.902111289641" fill="rgb(112, 245, 195)"/><polygon points="970.373984811817,606.932821457855,1010.806234178976,583.5892514017836,1051.238483546135,606.932821457855,1051.238483546135,653.6199615699977,1010.806234178976,676.9635316260691,970.373984811817,653.6199615699977,970.373984811817,606.932821457855" fill="rgb(112, 245, 195)"/><polygon points="929.9417354446579,676.963531626069,970.3739848118169,653.6199615699976,1010.8062341789758,676.963531626069,1010.8062341789758,723.6506717382117,970.3739848118169,746.9942417942831,929.9417354446579,723.6506717382117,929.9417354446579,676.963531626069" fill="rgb(112, 245, 195)"/><polygon points="1010.8062341789761,676.963531626069,1051.238483546135,653.6199615699976,1091.6707329132942,676.963531626069,1091.6707329132942,723.6506717382117,1051.238483546135,746.9942417942831,1010.8062341789761,723.6506717382117,1010.8062341789761,676.963531626069" fill="rgb(112, 245, 195)"/><polygon points="687.3482392417037,676.963531626069,727.7804886088627,653.6199615699976,768.2127379760217,676.963531626069,768.2127379760217,723.6506717382117,727.7804886088627,746.9942417942831,687.3482392417037,723.6506717382117,687.3482392417037,676.963531626069" fill="rgb(112, 245, 195)"/></g><g id="Prešovský kraj"><polygon points="970.373984811817,466.8714011214269,1010.806234178976,443.5278310653556,1051.238483546135,466.8714011214269,1051.238483546135,513.5585412335696,1010.806234178976,536.902111289641,970.373984811817,513.5585412335696,970.373984811817,466.8714011214269" fill="rgb(243, 245, 112)"/><polygon points="1051.2384835461348,326.8099807849988,1091.670732913294,303.4664107289275,1132.102982280453,326.8099807849988,1132.102982280453,373.49712089714154,1091.670732913294,396.84069095321286,1051.2384835461348,373.49712089714154,1051.2384835461348,326.8099807849988" fill="rgb(243, 245, 112)"/><polygon points="1010.8062341789761,396.84069095321286,1051.238483546135,373.49712089714154,1091.6707329132942,396.84069095321286,1091.6707329132942,443.5278310653556,1051.238483546135,466.8714011214269,1010.8062341789761,443.5278310653556,1010.8062341789761,396.84069095321286" fill="rgb(243, 245, 112)"/><polygon points="1132.102982280453,326.8099807849988,1172.5352316476121,303.4664107289275,1212.9674810147712,326.8099807849988,1212.9674810147712,373.49712089714154,1172.5352316476121,396.84069095321286,1132.102982280453,373.49712089714154,1132.102982280453,326.8099807849988" fill="rgb(243, 245, 112)"/><polygon points="1091.670732913294,396.84069095321286,1132.102982280453,373.49712089714154,1172.5352316476121,396.84069095321286,1172.5352316476121,443.5278310653556,1132.102982280453,466.8714011214269,1091.670732913294,443.5278310653556,1091.670732913294,396.84069095321286" fill="rgb(243, 245, 112)"/><polygon points="1212.967481014771,326.8099807849988,1253.39973038193,303.4664107289275,1293.8319797490892,326.8099807849988,1293.8319797490892,373.49712089714154,1253.39973038193,396.84069095321286,1212.967481014771,373.49712089714154,1212.967481014771,326.8099807849988" fill="rgb(243, 245, 112)"/><polygon points="1172.5352316476121,396.84069095321286,1212.9674810147712,373.49712089714154,1253.3997303819303,396.84069095321286,1253.3997303819303,443.5278310653556,1212.9674810147712,466.8714011214269,1172.5352316476121,443.5278310653556,1172.5352316476121,396.84069095321286" fill="rgb(243, 245, 112)"/><polygon points="1293.8319797490892,326.8099807849988,1334.2642291162483,303.4664107289275,1374.6964784834074,326.8099807849988,1374.6964784834074,373.49712089714154,1334.2642291162483,396.84069095321286,1293.8319797490892,373.49712089714154,1293.8319797490892,326.8099807849988" fill="rgb(243, 245, 112)"/><polygon points="1253.39973038193,396.84069095321286,1293.8319797490892,373.49712089714154,1334.2642291162483,396.84069095321286,1334.2642291162483,443.5278310653556,1293.8319797490892,466.8714011214269,1253.39973038193,443.5278310653556,1253.39973038193,396.84069095321286" fill="rgb(243, 245, 112)"/><polygon points="1374.6964784834072,326.8099807849988,1415.1287278505663,303.4664107289275,1455.5609772177254,326.8099807849988,1455.5609772177254,373.49712089714154,1415.1287278505663,396.84069095321286,1374.6964784834072,373.49712089714154,1374.6964784834072,326.8099807849988" fill="rgb(243, 245, 112)"/><polygon points="1334.264229116248,396.84069095321286,1374.6964784834072,373.49712089714154,1415.1287278505663,396.84069095321286,1415.1287278505663,443.5278310653556,1374.6964784834072,466.8714011214269,1334.264229116248,443.5278310653556,1334.264229116248,396.84069095321286" fill="rgb(243, 245, 112)"/><polygon points="1374.6964784834072,466.8714011214269,1415.1287278505663,443.5278310653556,1455.5609772177254,466.8714011214269,1455.5609772177254,513.5585412335696,1415.1287278505663,536.902111289641,1374.6964784834072,513.5585412335696,1374.6964784834072,466.8714011214269" fill="rgb(243, 245, 112)"/><polygon points="1455.5609772177254,326.8099807849988,1495.9932265848845,303.4664107289275,1536.4254759520436,326.8099807849988,1536.4254759520436,373.49712089714154,1495.9932265848845,396.84069095321286,1455.5609772177254,373.49712089714154,1455.5609772177254,326.8099807849988" fill="rgb(243, 245, 112)"/><polygon points="1415.1287278505663,396.84069095321286,1455.5609772177254,373.49712089714154,1495.9932265848845,396.84069095321286,1495.9932265848845,443.5278310653556,1455.5609772177254,466.8714011214269,1415.1287278505663,443.5278310653556,1415.1287278505663,396.84069095321286" fill="rgb(243, 245, 112)"/><polygon points="1495.9932265848843,396.84069095321286,1536.4254759520434,373.49712089714154,1576.8577253192025,396.84069095321286,1576.8577253192025,443.5278310653556,1536.4254759520434,466.8714011214269,1495.9932265848843,443.5278310653556,1495.9932265848843,396.84069095321286" fill="rgb(243, 245, 112)"/><polygon points="1576.8577253192025,396.84069095321286,1617.2899746863616,373.49712089714154,1657.7222240535207,396.84069095321286,1657.7222240535207,443.5278310653556,1617.2899746863616,466.8714011214269,1576.8577253192025,443.5278310653556,1576.8577253192025,396.84069095321286" fill="rgb(243, 245, 112)"/></g><g id="Košický kraj"><polygon points="1051.2384835461348,466.8714011214269,1091.670732913294,443.5278310653556,1132.102982280453,466.8714011214269,1132.102982280453,513.5585412335696,1091.670732913294,536.902111289641,1051.2384835461348,513.5585412335696,1051.2384835461348,466.8714011214269" fill="rgb(112, 245, 202)"/><polygon points="1010.8062341789761,536.902111289641,1051.238483546135,513.5585412335696,1091.6707329132942,536.902111289641,1091.6707329132942,583.5892514017837,1051.238483546135,606.9328214578551,1010.8062341789761,583.5892514017837,1010.8062341789761,536.902111289641" fill="rgb(112, 245, 202)"/><polygon points="1051.2384835461348,606.932821457855,1091.670732913294,583.5892514017836,1132.102982280453,606.932821457855,1132.102982280453,653.6199615699977,1091.670732913294,676.9635316260691,1051.2384835461348,653.6199615699977,1051.2384835461348,606.932821457855" fill="rgb(112, 245, 202)"/><polygon points="1132.102982280453,466.8714011214269,1172.5352316476121,443.5278310653556,1212.9674810147712,466.8714011214269,1212.9674810147712,513.5585412335696,1172.5352316476121,536.902111289641,1132.102982280453,513.5585412335696,1132.102982280453,466.8714011214269" fill="rgb(112, 245, 202)"/><polygon points="1091.670732913294,536.902111289641,1132.102982280453,513.5585412335696,1172.5352316476121,536.902111289641,1172.5352316476121,583.5892514017837,1132.102982280453,606.9328214578551,1091.670732913294,583.5892514017837,1091.670732913294,536.902111289641" fill="rgb(112, 245, 202)"/><polygon points="1212.967481014771,466.8714011214269,1253.39973038193,443.5278310653556,1293.8319797490892,466.8714011214269,1293.8319797490892,513.5585412335696,1253.39973038193,536.902111289641,1212.967481014771,513.5585412335696,1212.967481014771,466.8714011214269" fill="rgb(112, 245, 202)"/><polygon points="1172.5352316476121,536.902111289641,1212.9674810147712,513.5585412335696,1253.3997303819303,536.902111289641,1253.3997303819303,583.5892514017837,1212.9674810147712,606.9328214578551,1172.5352316476121,583.5892514017837,1172.5352316476121,536.902111289641" fill="rgb(112, 245, 202)"/><polygon points="1293.8319797490892,466.8714011214269,1334.2642291162483,443.5278310653556,1374.6964784834074,466.8714011214269,1374.6964784834074,513.5585412335696,1334.2642291162483,536.902111289641,1293.8319797490892,513.5585412335696,1293.8319797490892,466.8714011214269" fill="rgb(112, 245, 202)"/><polygon points="1253.39973038193,536.902111289641,1293.8319797490892,513.5585412335696,1334.2642291162483,536.902111289641,1334.2642291162483,583.5892514017837,1293.8319797490892,606.9328214578551,1253.39973038193,583.5892514017837,1253.39973038193,536.902111289641" fill="rgb(112, 245, 202)"/><polygon points="1334.264229116248,536.902111289641,1374.6964784834072,513.5585412335696,1415.1287278505663,536.902111289641,1415.1287278505663,583.5892514017837,1374.6964784834072,606.9328214578551,1334.264229116248,583.5892514017837,1334.264229116248,536.902111289641" fill="rgb(112, 245, 202)"/><polygon points="1455.5609772177254,466.8714011214269,1495.9932265848845,443.5278310653556,1536.4254759520436,466.8714011214269,1536.4254759520436,513.5585412335696,1495.9932265848845,536.902111289641,1455.5609772177254,513.5585412335696,1455.5609772177254,466.8714011214269" fill="rgb(112, 245, 202)"/><polygon points="1415.1287278505663,536.902111289641,1455.5609772177254,513.5585412335696,1495.9932265848845,536.902111289641,1495.9932265848845,583.5892514017837,1455.5609772177254,606.9328214578551,1415.1287278505663,583.5892514017837,1415.1287278505663,536.902111289641" fill="rgb(112, 245, 202)"/><polygon points="1455.5609772177254,606.932821457855,1495.9932265848845,583.5892514017836,1536.4254759520436,606.932821457855,1536.4254759520436,653.6199615699977,1495.9932265848845,676.9635316260691,1455.5609772177254,653.6199615699977,1455.5609772177254,606.932821457855" fill="rgb(112, 245, 202)"/><polygon points="1536.4254759520434,466.8714011214269,1576.8577253192025,443.5278310653556,1617.2899746863616,466.8714011214269,1617.2899746863616,513.5585412335696,1576.8577253192025,536.902111289641,1536.4254759520434,513.5585412335696,1536.4254759520434,466.8714011214269" fill="rgb(112, 245, 202)"/><polygon points="1495.9932265848843,536.902111289641,1536.4254759520434,513.5585412335696,1576.8577253192025,536.902111289641,1576.8577253192025,583.5892514017837,1536.4254759520434,606.9328214578551,1495.9932265848843,583.5892514017837,1495.9932265848843,536.902111289641" fill="rgb(112, 245, 202)"/><polygon points="1374.6964784834072,606.932821457855,1415.1287278505663,583.5892514017836,1455.5609772177254,606.932821457855,1455.5609772177254,653.6199615699977,1415.1287278505663,676.9635316260691,1374.6964784834072,653.6199615699977,1374.6964784834072,606.932821457855" fill="rgb(112, 245, 202)"/></g></svg>