<?xml version="1.0" encoding="utf-8"?><svg xmlns="http://www.w3.org/2000/svg" width="1766" height="1142"><g id="La Paz"><polygon points="740.8190974107395,185.34191230139263,753.1660823675851,178.2133772128775,765.5130673244307,185.34191230139263,765.5130673244307,199.5989824784228,753.1660823675851,206.72751756693793,740.8190974107395,199.5989824784228,740.8190974107395,185.34191230139263" fill="rgb(112, 245, 195)"/><polygon points="740.8190974107395,228.1131228324832,753.1660823675851,220.98458774396812,765.5130673244307,228.1131228324832,765.5130673244307,242.3701930095134,753.1660823675851,249.4987280980285,740.8190974107395,242.3701930095134,740.8190974107395,228.1131228324832" fill="rgb(112, 245, 195)"/><polygon points="728.4721124538938,249.4987280980285,740.8190974107395,242.3701930095134,753.1660823675851,249.4987280980285,753.1660823675851,263.7557982750587,740.8190974107395,270.8843333635738,728.4721124538938,263.7557982750587,728.4721124538938,249.4987280980285" fill="rgb(112, 245, 195)"/><polygon points="740.8190974107395,313.65554389466445,753.1660823675851,306.52700880614935,765.5130673244307,313.65554389466445,765.5130673244307,327.91261407169463,753.1660823675851,335.0411491602097,740.8190974107395,327.91261407169463,740.8190974107395,313.65554389466445" fill="rgb(112, 245, 195)"/><polygon points="753.1660823675852,163.95630703584732,765.5130673244308,156.82777194733222,777.8600522812765,163.95630703584732,777.8600522812765,178.2133772128775,765.5130673244308,185.3419123013926,753.1660823675852,178.2133772128775,753.1660823675852,163.95630703584732" fill="rgb(112, 245, 195)"/><polygon points="765.5130673244308,185.34191230139263,777.8600522812765,178.2133772128775,790.2070372381221,185.34191230139263,790.2070372381221,199.5989824784228,777.8600522812765,206.72751756693793,765.5130673244308,199.5989824784228,765.5130673244308,185.34191230139263" fill="rgb(112, 245, 195)"/><polygon points="753.1660823675852,206.72751756693793,765.5130673244308,199.59898247842284,777.8600522812765,206.72751756693793,777.8600522812765,220.98458774396812,765.5130673244308,228.1131228324832,753.1660823675852,220.98458774396812,753.1660823675852,206.72751756693793" fill="rgb(112, 245, 195)"/><polygon points="765.5130673244308,228.1131228324832,777.8600522812765,220.98458774396812,790.2070372381221,228.1131228324832,790.2070372381221,242.3701930095134,777.8600522812765,249.4987280980285,765.5130673244308,242.3701930095134,765.5130673244308,228.1131228324832" fill="rgb(112, 245, 195)"/><polygon points="753.1660823675852,249.4987280980285,765.5130673244308,242.3701930095134,777.8600522812765,249.4987280980285,777.8600522812765,263.7557982750587,765.5130673244308,270.8843333635738,753.1660823675852,263.7557982750587,753.1660823675852,249.4987280980285" fill="rgb(112, 245, 195)"/><polygon points="765.5130673244308,270.88433336357383,777.8600522812765,263.75579827505874,790.2070372381221,270.88433336357383,790.2070372381221,285.141403540604,777.8600522812765,292.2699386291191,765.5130673244308,285.141403540604,765.5130673244308,270.88433336357383" fill="rgb(112, 245, 195)"/><polygon points="753.1660823675852,292.2699386291191,765.5130673244308,285.141403540604,777.8600522812765,292.2699386291191,777.8600522812765,306.5270088061493,765.5130673244308,313.6555438946644,753.1660823675852,306.5270088061493,753.1660823675852,292.2699386291191" fill="rgb(112, 245, 195)"/><polygon points="765.5130673244308,313.65554389466445,777.8600522812765,306.52700880614935,790.2070372381221,313.65554389466445,790.2070372381221,327.91261407169463,777.8600522812765,335.0411491602097,765.5130673244308,327.91261407169463,765.5130673244308,313.65554389466445" fill="rgb(112, 245, 195)"/><polygon points="777.8600522812765,121.1850965047567,790.2070372381221,114.05656141624159,802.5540221949677,121.1850965047567,802.5540221949677,135.4421666817869,790.2070372381221,142.57070177030198,777.8600522812765,135.4421666817869,777.8600522812765,121.1850965047567" fill="rgb(112, 245, 195)"/><polygon points="790.2070372381221,142.570701770302,802.5540221949677,135.4421666817869,814.9010071518134,142.570701770302,814.9010071518134,156.8277719473322,802.5540221949677,163.95630703584732,790.2070372381221,156.8277719473322,790.2070372381221,142.570701770302" fill="rgb(112, 245, 195)"/><polygon points="777.8600522812765,163.95630703584732,790.2070372381221,156.82777194733222,802.5540221949677,163.95630703584732,802.5540221949677,178.2133772128775,790.2070372381221,185.3419123013926,777.8600522812765,178.2133772128775,777.8600522812765,163.95630703584732" fill="rgb(112, 245, 195)"/><polygon points="790.2070372381221,185.34191230139263,802.5540221949677,178.2133772128775,814.9010071518134,185.34191230139263,814.9010071518134,199.5989824784228,802.5540221949677,206.72751756693793,790.2070372381221,199.5989824784228,790.2070372381221,185.34191230139263" fill="rgb(112, 245, 195)"/><polygon points="777.8600522812765,206.72751756693793,790.2070372381221,199.59898247842284,802.5540221949677,206.72751756693793,802.5540221949677,220.98458774396812,790.2070372381221,228.1131228324832,777.8600522812765,220.98458774396812,777.8600522812765,206.72751756693793" fill="rgb(112, 245, 195)"/><polygon points="790.2070372381221,228.1131228324832,802.5540221949677,220.98458774396812,814.9010071518134,228.1131228324832,814.9010071518134,242.3701930095134,802.5540221949677,249.4987280980285,790.2070372381221,242.3701930095134,790.2070372381221,228.1131228324832" fill="rgb(112, 245, 195)"/><polygon points="777.8600522812765,249.4987280980285,790.2070372381221,242.3701930095134,802.5540221949677,249.4987280980285,802.5540221949677,263.7557982750587,790.2070372381221,270.8843333635738,777.8600522812765,263.7557982750587,777.8600522812765,249.4987280980285" fill="rgb(112, 245, 195)"/><polygon points="790.2070372381221,270.88433336357383,802.5540221949677,263.75579827505874,814.9010071518134,270.88433336357383,814.9010071518134,285.141403540604,802.5540221949677,292.2699386291191,790.2070372381221,285.141403540604,790.2070372381221,270.88433336357383" fill="rgb(112, 245, 195)"/><polygon points="777.8600522812765,292.2699386291191,790.2070372381221,285.141403540604,802.5540221949677,292.2699386291191,802.5540221949677,306.5270088061493,790.2070372381221,313.6555438946644,777.8600522812765,306.5270088061493,777.8600522812765,292.2699386291191" fill="rgb(112, 245, 195)"/><polygon points="790.2070372381221,313.65554389466445,802.5540221949677,306.52700880614935,814.9010071518134,313.65554389466445,814.9010071518134,327.91261407169463,802.5540221949677,335.0411491602097,790.2070372381221,327.91261407169463,790.2070372381221,313.65554389466445" fill="rgb(112, 245, 195)"/><polygon points="814.9010071518135,99.79949123921142,827.2479921086591,92.67095615069631,839.5949770655047,99.79949123921142,839.5949770655047,114.0565614162416,827.2479921086591,121.18509650475671,814.9010071518135,114.0565614162416,814.9010071518135,99.79949123921142" fill="rgb(112, 245, 195)"/><polygon points="802.5540221949677,121.1850965047567,814.9010071518134,114.05656141624159,827.247992108659,121.1850965047567,827.247992108659,135.4421666817869,814.9010071518134,142.57070177030198,802.5540221949677,135.4421666817869,802.5540221949677,121.1850965047567" fill="rgb(112, 245, 195)"/><polygon points="814.9010071518135,142.570701770302,827.2479921086591,135.4421666817869,839.5949770655047,142.570701770302,839.5949770655047,156.8277719473322,827.2479921086591,163.95630703584732,814.9010071518135,156.8277719473322,814.9010071518135,142.570701770302" fill="rgb(112, 245, 195)"/><polygon points="802.5540221949677,163.95630703584732,814.9010071518134,156.82777194733222,827.247992108659,163.95630703584732,827.247992108659,178.2133772128775,814.9010071518134,185.3419123013926,802.5540221949677,178.2133772128775,802.5540221949677,163.95630703584732" fill="rgb(112, 245, 195)"/><polygon points="814.9010071518135,185.34191230139263,827.2479921086591,178.2133772128775,839.5949770655047,185.34191230139263,839.5949770655047,199.5989824784228,827.2479921086591,206.72751756693793,814.9010071518135,199.5989824784228,814.9010071518135,185.34191230139263" fill="rgb(112, 245, 195)"/><polygon points="802.5540221949677,206.72751756693793,814.9010071518134,199.59898247842284,827.247992108659,206.72751756693793,827.247992108659,220.98458774396812,814.9010071518134,228.1131228324832,802.5540221949677,220.98458774396812,802.5540221949677,206.72751756693793" fill="rgb(112, 245, 195)"/><polygon points="814.9010071518135,228.1131228324832,827.2479921086591,220.98458774396812,839.5949770655047,228.1131228324832,839.5949770655047,242.3701930095134,827.2479921086591,249.4987280980285,814.9010071518135,242.3701930095134,814.9010071518135,228.1131228324832" fill="rgb(112, 245, 195)"/><polygon points="802.5540221949677,249.4987280980285,814.9010071518134,242.3701930095134,827.247992108659,249.4987280980285,827.247992108659,263.7557982750587,814.9010071518134,270.8843333635738,802.5540221949677,263.7557982750587,802.5540221949677,249.4987280980285" fill="rgb(112, 245, 195)"/><polygon points="814.9010071518135,270.88433336357383,827.2479921086591,263.75579827505874,839.5949770655047,270.88433336357383,839.5949770655047,285.141403540604,827.2479921086591,292.2699386291191,814.9010071518135,285.141403540604,814.9010071518135,270.88433336357383" fill="rgb(112, 245, 195)"/><polygon points="802.5540221949677,292.2699386291191,814.9010071518134,285.141403540604,827.247992108659,292.2699386291191,827.247992108659,306.5270088061493,814.9010071518134,313.6555438946644,802.5540221949677,306.5270088061493,802.5540221949677,292.2699386291191" fill="rgb(112, 245, 195)"/><polygon points="827.2479921086591,121.1850965047567,839.5949770655047,114.05656141624159,851.9419620223504,121.1850965047567,851.9419620223504,135.4421666817869,839.5949770655047,142.57070177030198,827.2479921086591,135.4421666817869,827.2479921086591,121.1850965047567" fill="rgb(112, 245, 195)"/><polygon points="839.5949770655047,142.570701770302,851.9419620223504,135.4421666817869,864.288946979196,142.570701770302,864.288946979196,156.8277719473322,851.9419620223504,163.95630703584732,839.5949770655047,156.8277719473322,839.5949770655047,142.570701770302" fill="rgb(112, 245, 195)"/><polygon points="827.2479921086591,163.95630703584732,839.5949770655047,156.82777194733222,851.9419620223504,163.95630703584732,851.9419620223504,178.2133772128775,839.5949770655047,185.3419123013926,827.2479921086591,178.2133772128775,827.2479921086591,163.95630703584732" fill="rgb(112, 245, 195)"/><polygon points="839.5949770655047,185.34191230139263,851.9419620223504,178.2133772128775,864.288946979196,185.34191230139263,864.288946979196,199.5989824784228,851.9419620223504,206.72751756693793,839.5949770655047,199.5989824784228,839.5949770655047,185.34191230139263" fill="rgb(112, 245, 195)"/><polygon points="827.2479921086591,206.72751756693793,839.5949770655047,199.59898247842284,851.9419620223504,206.72751756693793,851.9419620223504,220.98458774396812,839.5949770655047,228.1131228324832,827.2479921086591,220.98458774396812,827.2479921086591,206.72751756693793" fill="rgb(112, 245, 195)"/><polygon points="839.5949770655047,228.1131228324832,851.9419620223504,220.98458774396812,864.288946979196,228.1131228324832,864.288946979196,242.3701930095134,851.9419620223504,249.4987280980285,839.5949770655047,242.3701930095134,839.5949770655047,228.1131228324832" fill="rgb(112, 245, 195)"/><polygon points="827.2479921086591,249.4987280980285,839.5949770655047,242.3701930095134,851.9419620223504,249.4987280980285,851.9419620223504,263.7557982750587,839.5949770655047,270.8843333635738,827.2479921086591,263.7557982750587,827.2479921086591,249.4987280980285" fill="rgb(112, 245, 195)"/><polygon points="851.9419620223504,163.95630703584732,864.288946979196,156.82777194733222,876.6359319360416,163.95630703584732,876.6359319360416,178.2133772128775,864.288946979196,185.3419123013926,851.9419620223504,178.2133772128775,851.9419620223504,163.95630703584732" fill="rgb(112, 245, 195)"/><polygon points="765.5130673244308,142.570701770302,777.8600522812765,135.4421666817869,790.2070372381221,142.570701770302,790.2070372381221,156.8277719473322,777.8600522812765,163.95630703584732,765.5130673244308,156.8277719473322,765.5130673244308,142.570701770302" fill="rgb(112, 245, 195)"/></g><g id="Oruro"><polygon points="753.1660823675852,335.0411491602097,765.5130673244308,327.91261407169463,777.8600522812765,335.0411491602097,777.8600522812765,349.2982193372399,765.5130673244308,356.426754425755,753.1660823675852,349.2982193372399,753.1660823675852,335.0411491602097" fill="rgb(221, 245, 112)"/><polygon points="765.5130673244308,356.426754425755,777.8600522812765,349.2982193372399,790.2070372381221,356.426754425755,790.2070372381221,370.6838246027852,777.8600522812765,377.8123596913003,765.5130673244308,370.6838246027852,765.5130673244308,356.426754425755" fill="rgb(221, 245, 112)"/><polygon points="777.8600522812765,335.0411491602097,790.2070372381221,327.91261407169463,802.5540221949677,335.0411491602097,802.5540221949677,349.2982193372399,790.2070372381221,356.426754425755,777.8600522812765,349.2982193372399,777.8600522812765,335.0411491602097" fill="rgb(221, 245, 112)"/><polygon points="790.2070372381221,356.426754425755,802.5540221949677,349.2982193372399,814.9010071518134,356.426754425755,814.9010071518134,370.6838246027852,802.5540221949677,377.8123596913003,790.2070372381221,370.6838246027852,790.2070372381221,356.426754425755" fill="rgb(221, 245, 112)"/><polygon points="802.5540221949677,335.0411491602097,814.9010071518134,327.91261407169463,827.247992108659,335.0411491602097,827.247992108659,349.2982193372399,814.9010071518134,356.426754425755,802.5540221949677,349.2982193372399,802.5540221949677,335.0411491602097" fill="rgb(221, 245, 112)"/><polygon points="814.9010071518135,356.426754425755,827.2479921086591,349.2982193372399,839.5949770655047,356.426754425755,839.5949770655047,370.6838246027852,827.2479921086591,377.8123596913003,814.9010071518135,370.6838246027852,814.9010071518135,356.426754425755" fill="rgb(221, 245, 112)"/><polygon points="802.5540221949677,377.81235969130034,814.9010071518134,370.68382460278525,827.247992108659,377.81235969130034,827.247992108659,392.06942986833053,814.9010071518134,399.1979649568456,802.5540221949677,392.06942986833053,802.5540221949677,377.81235969130034" fill="rgb(221, 245, 112)"/></g><g id="Potosi"><polygon points="777.8600522812765,377.81235969130034,790.2070372381221,370.68382460278525,802.5540221949677,377.81235969130034,802.5540221949677,392.06942986833053,790.2070372381221,399.1979649568456,777.8600522812765,392.06942986833053,777.8600522812765,377.81235969130034" fill="rgb(245, 205, 112)"/><polygon points="790.2070372381221,399.1979649568456,802.5540221949677,392.06942986833053,814.9010071518134,399.1979649568456,814.9010071518134,413.4550351338758,802.5540221949677,420.5835702223909,790.2070372381221,413.4550351338758,790.2070372381221,399.1979649568456" fill="rgb(245, 205, 112)"/><polygon points="814.9010071518135,399.1979649568456,827.2479921086591,392.06942986833053,839.5949770655047,399.1979649568456,839.5949770655047,413.4550351338758,827.2479921086591,420.5835702223909,814.9010071518135,413.4550351338758,814.9010071518135,399.1979649568456" fill="rgb(245, 205, 112)"/><polygon points="802.5540221949677,420.58357022239096,814.9010071518134,413.45503513387587,827.247992108659,420.58357022239096,827.247992108659,434.84064039942115,814.9010071518134,441.96917548793624,802.5540221949677,434.84064039942115,802.5540221949677,420.58357022239096" fill="rgb(245, 205, 112)"/><polygon points="839.5949770655047,356.426754425755,851.9419620223504,349.2982193372399,864.288946979196,356.426754425755,864.288946979196,370.6838246027852,851.9419620223504,377.8123596913003,839.5949770655047,370.6838246027852,839.5949770655047,356.426754425755" fill="rgb(245, 205, 112)"/><polygon points="827.2479921086591,377.81235969130034,839.5949770655047,370.68382460278525,851.9419620223504,377.81235969130034,851.9419620223504,392.06942986833053,839.5949770655047,399.1979649568456,827.2479921086591,392.06942986833053,827.2479921086591,377.81235969130034" fill="rgb(245, 205, 112)"/><polygon points="839.5949770655047,399.1979649568456,851.9419620223504,392.06942986833053,864.288946979196,399.1979649568456,864.288946979196,413.4550351338758,851.9419620223504,420.5835702223909,839.5949770655047,413.4550351338758,839.5949770655047,399.1979649568456" fill="rgb(245, 205, 112)"/><polygon points="827.2479921086591,420.58357022239096,839.5949770655047,413.45503513387587,851.9419620223504,420.58357022239096,851.9419620223504,434.84064039942115,839.5949770655047,441.96917548793624,827.2479921086591,434.84064039942115,827.2479921086591,420.58357022239096" fill="rgb(245, 205, 112)"/><polygon points="851.9419620223504,377.81235969130034,864.288946979196,370.68382460278525,876.6359319360416,377.81235969130034,876.6359319360416,392.06942986833053,864.288946979196,399.1979649568456,851.9419620223504,392.06942986833053,851.9419620223504,377.81235969130034" fill="rgb(245, 205, 112)"/><polygon points="777.8600522812765,420.58357022239096,790.2070372381221,413.45503513387587,802.5540221949677,420.58357022239096,802.5540221949677,434.84064039942115,790.2070372381221,441.96917548793624,777.8600522812765,434.84064039942115,777.8600522812765,420.58357022239096" fill="rgb(245, 205, 112)"/></g><g id="Cochabamba"><polygon points="814.9010071518135,313.65554389466445,827.2479921086591,306.52700880614935,839.5949770655047,313.65554389466445,839.5949770655047,327.91261407169463,827.2479921086591,335.0411491602097,814.9010071518135,327.91261407169463,814.9010071518135,313.65554389466445" fill="rgb(245, 240, 112)"/><polygon points="839.5949770655047,270.88433336357383,851.9419620223504,263.75579827505874,864.288946979196,270.88433336357383,864.288946979196,285.141403540604,851.9419620223504,292.2699386291191,839.5949770655047,285.141403540604,839.5949770655047,270.88433336357383" fill="rgb(245, 240, 112)"/><polygon points="827.2479921086591,292.2699386291191,839.5949770655047,285.141403540604,851.9419620223504,292.2699386291191,851.9419620223504,306.5270088061493,839.5949770655047,313.6555438946644,827.2479921086591,306.5270088061493,827.2479921086591,292.2699386291191" fill="rgb(245, 240, 112)"/><polygon points="839.5949770655047,313.65554389466445,851.9419620223504,306.52700880614935,864.288946979196,313.65554389466445,864.288946979196,327.91261407169463,851.9419620223504,335.0411491602097,839.5949770655047,327.91261407169463,839.5949770655047,313.65554389466445" fill="rgb(245, 240, 112)"/><polygon points="827.2479921086591,335.0411491602097,839.5949770655047,327.91261407169463,851.9419620223504,335.0411491602097,851.9419620223504,349.2982193372399,839.5949770655047,356.426754425755,827.2479921086591,349.2982193372399,827.2479921086591,335.0411491602097" fill="rgb(245, 240, 112)"/><polygon points="864.2889469791961,185.34191230139263,876.6359319360417,178.2133772128775,888.9829168928874,185.34191230139263,888.9829168928874,199.5989824784228,876.6359319360417,206.72751756693793,864.2889469791961,199.5989824784228,864.2889469791961,185.34191230139263" fill="rgb(245, 240, 112)"/><polygon points="851.9419620223504,206.72751756693793,864.288946979196,199.59898247842284,876.6359319360416,206.72751756693793,876.6359319360416,220.98458774396812,864.288946979196,228.1131228324832,851.9419620223504,220.98458774396812,851.9419620223504,206.72751756693793" fill="rgb(245, 240, 112)"/><polygon points="864.2889469791961,228.1131228324832,876.6359319360417,220.98458774396812,888.9829168928874,228.1131228324832,888.9829168928874,242.3701930095134,876.6359319360417,249.4987280980285,864.2889469791961,242.3701930095134,864.2889469791961,228.1131228324832" fill="rgb(245, 240, 112)"/><polygon points="851.9419620223504,249.4987280980285,864.288946979196,242.3701930095134,876.6359319360416,249.4987280980285,876.6359319360416,263.7557982750587,864.288946979196,270.8843333635738,851.9419620223504,263.7557982750587,851.9419620223504,249.4987280980285" fill="rgb(245, 240, 112)"/><polygon points="864.2889469791961,270.88433336357383,876.6359319360417,263.75579827505874,888.9829168928874,270.88433336357383,888.9829168928874,285.141403540604,876.6359319360417,292.2699386291191,864.2889469791961,285.141403540604,864.2889469791961,270.88433336357383" fill="rgb(245, 240, 112)"/><polygon points="851.9419620223504,292.2699386291191,864.288946979196,285.141403540604,876.6359319360416,292.2699386291191,876.6359319360416,306.5270088061493,864.288946979196,313.6555438946644,851.9419620223504,306.5270088061493,851.9419620223504,292.2699386291191" fill="rgb(245, 240, 112)"/><polygon points="864.2889469791961,313.65554389466445,876.6359319360417,306.52700880614935,888.9829168928874,313.65554389466445,888.9829168928874,327.91261407169463,876.6359319360417,335.0411491602097,864.2889469791961,327.91261407169463,864.2889469791961,313.65554389466445" fill="rgb(245, 240, 112)"/><polygon points="851.9419620223504,335.0411491602097,864.288946979196,327.91261407169463,876.6359319360416,335.0411491602097,876.6359319360416,349.2982193372399,864.288946979196,356.426754425755,851.9419620223504,349.2982193372399,851.9419620223504,335.0411491602097" fill="rgb(245, 240, 112)"/><polygon points="876.6359319360417,206.72751756693793,888.9829168928874,199.59898247842284,901.329901849733,206.72751756693793,901.329901849733,220.98458774396812,888.9829168928874,228.1131228324832,876.6359319360417,220.98458774396812,876.6359319360417,206.72751756693793" fill="rgb(245, 240, 112)"/><polygon points="888.9829168928874,228.1131228324832,901.329901849733,220.98458774396812,913.6768868065786,228.1131228324832,913.6768868065786,242.3701930095134,901.329901849733,249.4987280980285,888.9829168928874,242.3701930095134,888.9829168928874,228.1131228324832" fill="rgb(245, 240, 112)"/><polygon points="876.6359319360417,249.4987280980285,888.9829168928874,242.3701930095134,901.329901849733,249.4987280980285,901.329901849733,263.7557982750587,888.9829168928874,270.8843333635738,876.6359319360417,263.7557982750587,876.6359319360417,249.4987280980285" fill="rgb(245, 240, 112)"/><polygon points="888.9829168928874,270.88433336357383,901.329901849733,263.75579827505874,913.6768868065786,270.88433336357383,913.6768868065786,285.141403540604,901.329901849733,292.2699386291191,888.9829168928874,285.141403540604,888.9829168928874,270.88433336357383" fill="rgb(245, 240, 112)"/><polygon points="876.6359319360417,292.2699386291191,888.9829168928874,285.141403540604,901.329901849733,292.2699386291191,901.329901849733,306.5270088061493,888.9829168928874,313.6555438946644,876.6359319360417,306.5270088061493,876.6359319360417,292.2699386291191" fill="rgb(245, 240, 112)"/><polygon points="888.9829168928874,313.65554389466445,901.329901849733,306.52700880614935,913.6768868065786,313.65554389466445,913.6768868065786,327.91261407169463,901.329901849733,335.0411491602097,888.9829168928874,327.91261407169463,888.9829168928874,313.65554389466445" fill="rgb(245, 240, 112)"/><polygon points="876.6359319360417,335.0411491602097,888.9829168928874,327.91261407169463,901.329901849733,335.0411491602097,901.329901849733,349.2982193372399,888.9829168928874,356.426754425755,876.6359319360417,349.2982193372399,876.6359319360417,335.0411491602097" fill="rgb(245, 240, 112)"/><polygon points="901.329901849733,206.72751756693793,913.6768868065786,199.59898247842284,926.0238717634243,206.72751756693793,926.0238717634243,220.98458774396812,913.6768868065786,228.1131228324832,901.329901849733,220.98458774396812,901.329901849733,206.72751756693793" fill="rgb(245, 240, 112)"/><polygon points="913.6768868065788,228.1131228324832,926.0238717634244,220.98458774396812,938.37085672027,228.1131228324832,938.37085672027,242.3701930095134,926.0238717634244,249.4987280980285,913.6768868065788,242.3701930095134,913.6768868065788,228.1131228324832" fill="rgb(245, 240, 112)"/><polygon points="901.329901849733,249.4987280980285,913.6768868065786,242.3701930095134,926.0238717634243,249.4987280980285,926.0238717634243,263.7557982750587,913.6768868065786,270.8843333635738,901.329901849733,263.7557982750587,901.329901849733,249.4987280980285" fill="rgb(245, 240, 112)"/><polygon points="913.6768868065788,270.88433336357383,926.0238717634244,263.75579827505874,938.37085672027,270.88433336357383,938.37085672027,285.141403540604,926.0238717634244,292.2699386291191,913.6768868065788,285.141403540604,913.6768868065788,270.88433336357383" fill="rgb(245, 240, 112)"/><polygon points="901.329901849733,292.2699386291191,913.6768868065786,285.141403540604,926.0238717634243,292.2699386291191,926.0238717634243,306.5270088061493,913.6768868065786,313.6555438946644,901.329901849733,306.5270088061493,901.329901849733,292.2699386291191" fill="rgb(245, 240, 112)"/><polygon points="913.6768868065788,313.65554389466445,926.0238717634244,306.52700880614935,938.37085672027,313.65554389466445,938.37085672027,327.91261407169463,926.0238717634244,335.0411491602097,913.6768868065788,327.91261407169463,913.6768868065788,313.65554389466445" fill="rgb(245, 240, 112)"/><polygon points="901.329901849733,335.0411491602097,913.6768868065786,327.91261407169463,926.0238717634243,335.0411491602097,926.0238717634243,349.2982193372399,913.6768868065786,356.426754425755,901.329901849733,349.2982193372399,901.329901849733,335.0411491602097" fill="rgb(245, 240, 112)"/><polygon points="926.0238717634244,249.4987280980285,938.37085672027,242.3701930095134,950.7178416771156,249.4987280980285,950.7178416771156,263.7557982750587,938.37085672027,270.8843333635738,926.0238717634244,263.7557982750587,926.0238717634244,249.4987280980285" fill="rgb(245, 240, 112)"/><polygon points="926.0238717634244,292.2699386291191,938.37085672027,285.141403540604,950.7178416771156,292.2699386291191,950.7178416771156,306.5270088061493,938.37085672027,313.6555438946644,926.0238717634244,306.5270088061493,926.0238717634244,292.2699386291191" fill="rgb(245, 240, 112)"/></g><g id="El Beni"><polygon points="839.5949770655047,99.79949123921142,851.9419620223504,92.67095615069631,864.288946979196,99.79949123921142,864.288946979196,114.0565614162416,851.9419620223504,121.18509650475671,839.5949770655047,114.0565614162416,839.5949770655047,99.79949123921142" fill="rgb(186, 245, 112)"/><polygon points="851.9419620223504,121.1850965047567,864.288946979196,114.05656141624159,876.6359319360416,121.1850965047567,876.6359319360416,135.4421666817869,864.288946979196,142.57070177030198,851.9419620223504,135.4421666817869,851.9419620223504,121.1850965047567" fill="rgb(186, 245, 112)"/><polygon points="864.2889469791961,142.570701770302,876.6359319360417,135.4421666817869,888.9829168928874,142.570701770302,888.9829168928874,156.8277719473322,876.6359319360417,163.95630703584732,864.2889469791961,156.8277719473322,864.2889469791961,142.570701770302" fill="rgb(186, 245, 112)"/><polygon points="876.6359319360417,163.95630703584732,888.9829168928874,156.82777194733222,901.329901849733,163.95630703584732,901.329901849733,178.2133772128775,888.9829168928874,185.3419123013926,876.6359319360417,178.2133772128775,876.6359319360417,163.95630703584732" fill="rgb(186, 245, 112)"/><polygon points="888.9829168928874,185.34191230139263,901.329901849733,178.2133772128775,913.6768868065786,185.34191230139263,913.6768868065786,199.5989824784228,901.329901849733,206.72751756693793,888.9829168928874,199.5989824784228,888.9829168928874,185.34191230139263" fill="rgb(186, 245, 112)"/><polygon points="901.329901849733,163.95630703584732,913.6768868065786,156.82777194733222,926.0238717634243,163.95630703584732,926.0238717634243,178.2133772128775,913.6768868065786,185.3419123013926,901.329901849733,178.2133772128775,901.329901849733,163.95630703584732" fill="rgb(186, 245, 112)"/></g><g id="Pando"><polygon points="827.2479921086591,78.41388597366611,839.5949770655047,71.285350885151,851.9419620223504,78.41388597366611,851.9419620223504,92.6709561506963,839.5949770655047,99.7994912392114,827.2479921086591,92.6709561506963,827.2479921086591,78.41388597366611" fill="rgb(157, 245, 112)"/><polygon points="802.5540221949677,78.41388597366611,814.9010071518134,71.285350885151,827.247992108659,78.41388597366611,827.247992108659,92.6709561506963,814.9010071518134,99.7994912392114,802.5540221949677,92.6709561506963,802.5540221949677,78.41388597366611" fill="rgb(157, 245, 112)"/></g><g id="Chuquisaca"><polygon points="864.2889469791961,356.426754425755,876.6359319360417,349.2982193372399,888.9829168928874,356.426754425755,888.9829168928874,370.6838246027852,876.6359319360417,377.8123596913003,864.2889469791961,370.6838246027852,864.2889469791961,356.426754425755" fill="rgb(171, 245, 112)"/><polygon points="864.2889469791961,399.1979649568456,876.6359319360417,392.06942986833053,888.9829168928874,399.1979649568456,888.9829168928874,413.4550351338758,876.6359319360417,420.5835702223909,864.2889469791961,413.4550351338758,864.2889469791961,399.1979649568456" fill="rgb(171, 245, 112)"/><polygon points="888.9829168928874,356.426754425755,901.329901849733,349.2982193372399,913.6768868065786,356.426754425755,913.6768868065786,370.6838246027852,901.329901849733,377.8123596913003,888.9829168928874,370.6838246027852,888.9829168928874,356.426754425755" fill="rgb(171, 245, 112)"/><polygon points="876.6359319360417,377.81235969130034,888.9829168928874,370.68382460278525,901.329901849733,377.81235969130034,901.329901849733,392.06942986833053,888.9829168928874,399.1979649568456,876.6359319360417,392.06942986833053,876.6359319360417,377.81235969130034" fill="rgb(171, 245, 112)"/><polygon points="888.9829168928874,399.1979649568456,901.329901849733,392.06942986833053,913.6768868065786,399.1979649568456,913.6768868065786,413.4550351338758,901.329901849733,420.5835702223909,888.9829168928874,413.4550351338758,888.9829168928874,399.1979649568456" fill="rgb(171, 245, 112)"/><polygon points="913.6768868065788,356.426754425755,926.0238717634244,349.2982193372399,938.37085672027,356.426754425755,938.37085672027,370.6838246027852,926.0238717634244,377.8123596913003,913.6768868065788,370.6838246027852,913.6768868065788,356.426754425755" fill="rgb(171, 245, 112)"/><polygon points="901.329901849733,377.81235969130034,913.6768868065786,370.68382460278525,926.0238717634243,377.81235969130034,926.0238717634243,392.06942986833053,913.6768868065786,399.1979649568456,901.329901849733,392.06942986833053,901.329901849733,377.81235969130034" fill="rgb(171, 245, 112)"/><polygon points="926.0238717634244,377.81235969130034,938.37085672027,370.68382460278525,950.7178416771156,377.81235969130034,950.7178416771156,392.06942986833053,938.37085672027,399.1979649568456,926.0238717634244,392.06942986833053,926.0238717634244,377.81235969130034" fill="rgb(171, 245, 112)"/></g><g id="Tarija"><polygon points="851.9419620223504,420.58357022239096,864.288946979196,413.45503513387587,876.6359319360416,420.58357022239096,876.6359319360416,434.84064039942115,864.288946979196,441.96917548793624,851.9419620223504,434.84064039942115,851.9419620223504,420.58357022239096" fill="rgb(143, 245, 112)"/><polygon points="876.6359319360417,420.58357022239096,888.9829168928874,413.45503513387587,901.329901849733,420.58357022239096,901.329901849733,434.84064039942115,888.9829168928874,441.96917548793624,876.6359319360417,434.84064039942115,876.6359319360417,420.58357022239096" fill="rgb(143, 245, 112)"/><polygon points="888.9829168928874,441.96917548793624,901.329901849733,434.84064039942115,913.6768868065786,441.96917548793624,913.6768868065786,456.2262456649664,901.329901849733,463.3547807534815,888.9829168928874,456.2262456649664,888.9829168928874,441.96917548793624" fill="rgb(143, 245, 112)"/><polygon points="913.6768868065788,399.1979649568456,926.0238717634244,392.06942986833053,938.37085672027,399.1979649568456,938.37085672027,413.4550351338758,926.0238717634244,420.5835702223909,913.6768868065788,413.4550351338758,913.6768868065788,399.1979649568456" fill="rgb(143, 245, 112)"/><polygon points="901.329901849733,420.58357022239096,913.6768868065786,413.45503513387587,926.0238717634243,420.58357022239096,926.0238717634243,434.84064039942115,913.6768868065786,441.96917548793624,901.329901849733,434.84064039942115,901.329901849733,420.58357022239096" fill="rgb(143, 245, 112)"/><polygon points="938.37085672027,399.1979649568456,950.7178416771156,392.06942986833053,963.0648266339613,399.1979649568456,963.0648266339613,413.4550351338758,950.7178416771156,420.5835702223909,938.37085672027,413.4550351338758,938.37085672027,399.1979649568456" fill="rgb(143, 245, 112)"/><polygon points="926.0238717634244,420.58357022239096,938.37085672027,413.45503513387587,950.7178416771156,420.58357022239096,950.7178416771156,434.84064039942115,938.37085672027,441.96917548793624,926.0238717634244,434.84064039942115,926.0238717634244,420.58357022239096" fill="rgb(143, 245, 112)"/><polygon points="950.7178416771156,420.58357022239096,963.0648266339613,413.45503513387587,975.4118115908069,420.58357022239096,975.4118115908069,434.84064039942115,963.0648266339613,441.96917548793624,950.7178416771156,434.84064039942115,950.7178416771156,420.58357022239096" fill="rgb(143, 245, 112)"/></g><g id="Santa Cruz"><polygon points="913.6768868065788,185.34191230139263,926.0238717634244,178.2133772128775,938.37085672027,185.34191230139263,938.37085672027,199.5989824784228,926.0238717634244,206.72751756693793,913.6768868065788,199.5989824784228,913.6768868065788,185.34191230139263" fill="rgb(112, 245, 145)"/><polygon points="938.37085672027,185.34191230139263,950.7178416771156,178.2133772128775,963.0648266339613,185.34191230139263,963.0648266339613,199.5989824784228,950.7178416771156,206.72751756693793,938.37085672027,199.5989824784228,938.37085672027,185.34191230139263" fill="rgb(112, 245, 145)"/><polygon points="926.0238717634244,206.72751756693793,938.37085672027,199.59898247842284,950.7178416771156,206.72751756693793,950.7178416771156,220.98458774396812,938.37085672027,228.1131228324832,926.0238717634244,220.98458774396812,926.0238717634244,206.72751756693793" fill="rgb(112, 245, 145)"/><polygon points="938.37085672027,228.1131228324832,950.7178416771156,220.98458774396812,963.0648266339613,228.1131228324832,963.0648266339613,242.3701930095134,950.7178416771156,249.4987280980285,938.37085672027,242.3701930095134,938.37085672027,228.1131228324832" fill="rgb(112, 245, 145)"/><polygon points="938.37085672027,270.88433336357383,950.7178416771156,263.75579827505874,963.0648266339613,270.88433336357383,963.0648266339613,285.141403540604,950.7178416771156,292.2699386291191,938.37085672027,285.141403540604,938.37085672027,270.88433336357383" fill="rgb(112, 245, 145)"/><polygon points="938.37085672027,313.65554389466445,950.7178416771156,306.52700880614935,963.0648266339613,313.65554389466445,963.0648266339613,327.91261407169463,950.7178416771156,335.0411491602097,938.37085672027,327.91261407169463,938.37085672027,313.65554389466445" fill="rgb(112, 245, 145)"/><polygon points="926.0238717634244,335.0411491602097,938.37085672027,327.91261407169463,950.7178416771156,335.0411491602097,950.7178416771156,349.2982193372399,938.37085672027,356.426754425755,926.0238717634244,349.2982193372399,926.0238717634244,335.0411491602097" fill="rgb(112, 245, 145)"/><polygon points="938.37085672027,356.426754425755,950.7178416771156,349.2982193372399,963.0648266339613,356.426754425755,963.0648266339613,370.6838246027852,950.7178416771156,377.8123596913003,938.37085672027,370.6838246027852,938.37085672027,356.426754425755" fill="rgb(112, 245, 145)"/><polygon points="963.0648266339614,185.34191230139263,975.411811590807,178.2133772128775,987.7587965476527,185.34191230139263,987.7587965476527,199.5989824784228,975.411811590807,206.72751756693793,963.0648266339614,199.5989824784228,963.0648266339614,185.34191230139263" fill="rgb(112, 245, 145)"/><polygon points="950.7178416771156,206.72751756693793,963.0648266339613,199.59898247842284,975.4118115908069,206.72751756693793,975.4118115908069,220.98458774396812,963.0648266339613,228.1131228324832,950.7178416771156,220.98458774396812,950.7178416771156,206.72751756693793" fill="rgb(112, 245, 145)"/><polygon points="963.0648266339614,228.1131228324832,975.411811590807,220.98458774396812,987.7587965476527,228.1131228324832,987.7587965476527,242.3701930095134,975.411811590807,249.4987280980285,963.0648266339614,242.3701930095134,963.0648266339614,228.1131228324832" fill="rgb(112, 245, 145)"/><polygon points="950.7178416771156,249.4987280980285,963.0648266339613,242.3701930095134,975.4118115908069,249.4987280980285,975.4118115908069,263.7557982750587,963.0648266339613,270.8843333635738,950.7178416771156,263.7557982750587,950.7178416771156,249.4987280980285" fill="rgb(112, 245, 145)"/><polygon points="963.0648266339614,270.88433336357383,975.411811590807,263.75579827505874,987.7587965476527,270.88433336357383,987.7587965476527,285.141403540604,975.411811590807,292.2699386291191,963.0648266339614,285.141403540604,963.0648266339614,270.88433336357383" fill="rgb(112, 245, 145)"/><polygon points="950.7178416771156,292.2699386291191,963.0648266339613,285.141403540604,975.4118115908069,292.2699386291191,975.4118115908069,306.5270088061493,963.0648266339613,313.6555438946644,950.7178416771156,306.5270088061493,950.7178416771156,292.2699386291191" fill="rgb(112, 245, 145)"/><polygon points="963.0648266339614,313.65554389466445,975.411811590807,306.52700880614935,987.7587965476527,313.65554389466445,987.7587965476527,327.91261407169463,975.411811590807,335.0411491602097,963.0648266339614,327.91261407169463,963.0648266339614,313.65554389466445" fill="rgb(112, 245, 145)"/><polygon points="950.7178416771156,335.0411491602097,963.0648266339613,327.91261407169463,975.4118115908069,335.0411491602097,975.4118115908069,349.2982193372399,963.0648266339613,356.426754425755,950.7178416771156,349.2982193372399,950.7178416771156,335.0411491602097" fill="rgb(112, 245, 145)"/><polygon points="963.0648266339614,356.426754425755,975.411811590807,349.2982193372399,987.7587965476527,356.426754425755,987.7587965476527,370.6838246027852,975.411811590807,377.8123596913003,963.0648266339614,370.6838246027852,963.0648266339614,356.426754425755" fill="rgb(112, 245, 145)"/><polygon points="950.7178416771156,377.81235969130034,963.0648266339613,370.68382460278525,975.4118115908069,377.81235969130034,975.4118115908069,392.06942986833053,963.0648266339613,399.1979649568456,950.7178416771156,392.06942986833053,950.7178416771156,377.81235969130034" fill="rgb(112, 245, 145)"/><polygon points="987.7587965476527,185.34191230139263,1000.1057815044983,178.2133772128775,1012.4527664613439,185.34191230139263,1012.4527664613439,199.5989824784228,1000.1057815044983,206.72751756693793,987.7587965476527,199.5989824784228,987.7587965476527,185.34191230139263" fill="rgb(112, 245, 145)"/><polygon points="975.411811590807,206.72751756693793,987.7587965476527,199.59898247842284,1000.1057815044983,206.72751756693793,1000.1057815044983,220.98458774396812,987.7587965476527,228.1131228324832,975.411811590807,220.98458774396812,975.411811590807,206.72751756693793" fill="rgb(112, 245, 145)"/><polygon points="987.7587965476527,228.1131228324832,1000.1057815044983,220.98458774396812,1012.4527664613439,228.1131228324832,1012.4527664613439,242.3701930095134,1000.1057815044983,249.4987280980285,987.7587965476527,242.3701930095134,987.7587965476527,228.1131228324832" fill="rgb(112, 245, 145)"/><polygon points="975.411811590807,249.4987280980285,987.7587965476527,242.3701930095134,1000.1057815044983,249.4987280980285,1000.1057815044983,263.7557982750587,987.7587965476527,270.8843333635738,975.411811590807,263.7557982750587,975.411811590807,249.4987280980285" fill="rgb(112, 245, 145)"/><polygon points="987.7587965476527,270.88433336357383,1000.1057815044983,263.75579827505874,1012.4527664613439,270.88433336357383,1012.4527664613439,285.141403540604,1000.1057815044983,292.2699386291191,987.7587965476527,285.141403540604,987.7587965476527,270.88433336357383" fill="rgb(112, 245, 145)"/><polygon points="975.411811590807,292.2699386291191,987.7587965476527,285.141403540604,1000.1057815044983,292.2699386291191,1000.1057815044983,306.5270088061493,987.7587965476527,313.6555438946644,975.411811590807,306.5270088061493,975.411811590807,292.2699386291191" fill="rgb(112, 245, 145)"/><polygon points="987.7587965476527,313.65554389466445,1000.1057815044983,306.52700880614935,1012.4527664613439,313.65554389466445,1012.4527664613439,327.91261407169463,1000.1057815044983,335.0411491602097,987.7587965476527,327.91261407169463,987.7587965476527,313.65554389466445" fill="rgb(112, 245, 145)"/><polygon points="975.411811590807,335.0411491602097,987.7587965476527,327.91261407169463,1000.1057815044983,335.0411491602097,1000.1057815044983,349.2982193372399,987.7587965476527,356.426754425755,975.411811590807,349.2982193372399,975.411811590807,335.0411491602097" fill="rgb(112, 245, 145)"/><polygon points="1000.1057815044983,206.72751756693793,1012.4527664613439,199.59898247842284,1024.7997514181895,206.72751756693793,1024.7997514181895,220.98458774396812,1012.4527664613439,228.1131228324832,1000.1057815044983,220.98458774396812,1000.1057815044983,206.72751756693793" fill="rgb(112, 245, 145)"/><polygon points="1000.1057815044983,249.4987280980285,1012.4527664613439,242.3701930095134,1024.7997514181895,249.4987280980285,1024.7997514181895,263.7557982750587,1012.4527664613439,270.8843333635738,1000.1057815044983,263.7557982750587,1000.1057815044983,249.4987280980285" fill="rgb(112, 245, 145)"/><polygon points="1012.4527664613439,270.88433336357383,1024.7997514181895,263.75579827505874,1037.1467363750353,270.88433336357383,1037.1467363750353,285.141403540604,1024.7997514181895,292.2699386291191,1012.4527664613439,285.141403540604,1012.4527664613439,270.88433336357383" fill="rgb(112, 245, 145)"/><polygon points="1000.1057815044983,292.2699386291191,1012.4527664613439,285.141403540604,1024.7997514181895,292.2699386291191,1024.7997514181895,306.5270088061493,1012.4527664613439,313.6555438946644,1000.1057815044983,306.5270088061493,1000.1057815044983,292.2699386291191" fill="rgb(112, 245, 145)"/><polygon points="1012.4527664613439,313.65554389466445,1024.7997514181895,306.52700880614935,1037.1467363750353,313.65554389466445,1037.1467363750353,327.91261407169463,1024.7997514181895,335.0411491602097,1012.4527664613439,327.91261407169463,1012.4527664613439,313.65554389466445" fill="rgb(112, 245, 145)"/><polygon points="1000.1057815044983,335.0411491602097,1012.4527664613439,327.91261407169463,1024.7997514181895,335.0411491602097,1024.7997514181895,349.2982193372399,1012.4527664613439,356.426754425755,1000.1057815044983,349.2982193372399,1000.1057815044983,335.0411491602097" fill="rgb(112, 245, 145)"/><polygon points="1037.146736375035,270.88433336357383,1049.4937213318808,263.75579827505874,1061.8407062887266,270.88433336357383,1061.8407062887266,285.141403540604,1049.4937213318808,292.2699386291191,1037.146736375035,285.141403540604,1037.146736375035,270.88433336357383" fill="rgb(112, 245, 145)"/><polygon points="1024.7997514181895,292.2699386291191,1037.1467363750353,285.141403540604,1049.493721331881,292.2699386291191,1049.493721331881,306.5270088061493,1037.1467363750353,313.6555438946644,1024.7997514181895,306.5270088061493,1024.7997514181895,292.2699386291191" fill="rgb(112, 245, 145)"/><polygon points="1037.146736375035,313.65554389466445,1049.4937213318808,306.52700880614935,1061.8407062887266,313.65554389466445,1061.8407062887266,327.91261407169463,1049.4937213318808,335.0411491602097,1037.146736375035,327.91261407169463,1037.146736375035,313.65554389466445" fill="rgb(112, 245, 145)"/><polygon points="1024.7997514181895,335.0411491602097,1037.1467363750353,327.91261407169463,1049.493721331881,335.0411491602097,1049.493721331881,349.2982193372399,1037.1467363750353,356.426754425755,1024.7997514181895,349.2982193372399,1024.7997514181895,335.0411491602097" fill="rgb(112, 245, 145)"/><polygon points="1049.4937213318808,292.2699386291191,1061.8407062887266,285.141403540604,1074.1876912455723,292.2699386291191,1074.1876912455723,306.5270088061493,1061.8407062887266,313.6555438946644,1049.4937213318808,306.5270088061493,1049.4937213318808,292.2699386291191" fill="rgb(112, 245, 145)"/><polygon points="1061.8407062887266,313.65554389466445,1074.1876912455723,306.52700880614935,1086.534676202418,313.65554389466445,1086.534676202418,327.91261407169463,1074.1876912455723,335.0411491602097,1061.8407062887266,327.91261407169463,1061.8407062887266,313.65554389466445" fill="rgb(112, 245, 145)"/><polygon points="1049.4937213318808,335.0411491602097,1061.8407062887266,327.91261407169463,1074.1876912455723,335.0411491602097,1074.1876912455723,349.2982193372399,1061.8407062887266,356.426754425755,1049.4937213318808,349.2982193372399,1049.4937213318808,335.0411491602097" fill="rgb(112, 245, 145)"/><polygon points="1074.187691245572,292.2699386291191,1086.5346762024178,285.141403540604,1098.8816611592636,292.2699386291191,1098.8816611592636,306.5270088061493,1086.5346762024178,313.6555438946644,1074.187691245572,306.5270088061493,1074.187691245572,292.2699386291191" fill="rgb(112, 245, 145)"/><polygon points="1074.187691245572,335.0411491602097,1086.5346762024178,327.91261407169463,1098.8816611592636,335.0411491602097,1098.8816611592636,349.2982193372399,1086.5346762024178,356.426754425755,1074.187691245572,349.2982193372399,1074.187691245572,335.0411491602097" fill="rgb(112, 245, 145)"/></g></svg>