<?xml version="1.0" encoding="utf-8"?><svg xmlns="http://www.w3.org/2000/svg" width="1766" height="1142"><g id="La Paz"><polygon points="733.373490376284,201.62542004061095,750.8347639566717,191.5441490385804,768.2960375370594,201.62542004061095,768.2960375370594,221.78796204467204,750.8347639566717,231.8692330467026,733.373490376284,221.78796204467204,733.373490376284,201.62542004061095" fill="rgb(112, 245, 195)"/><polygon points="733.373490376284,262.1130460527942,750.8347639566717,252.03177505076366,768.2960375370594,262.1130460527942,768.2960375370594,282.2755880568553,750.8347639566717,292.35685905888585,733.373490376284,282.2755880568553,733.373490376284,262.1130460527942" fill="rgb(112, 245, 195)"/><polygon points="768.2960375370595,141.13779402842766,785.7573111174472,131.05652302639712,803.2185846978349,141.13779402842766,803.2185846978349,161.30033603248876,785.7573111174472,171.3816070345193,768.2960375370595,161.30033603248876,768.2960375370595,141.13779402842766" fill="rgb(112, 245, 195)"/><polygon points="750.8347639566717,171.3816070345193,768.2960375370594,161.30033603248876,785.7573111174471,171.3816070345193,785.7573111174471,191.5441490385804,768.2960375370594,201.62542004061095,750.8347639566717,191.5441490385804,750.8347639566717,171.3816070345193" fill="rgb(112, 245, 195)"/><polygon points="768.2960375370595,201.62542004061095,785.7573111174472,191.5441490385804,803.2185846978349,201.62542004061095,803.2185846978349,221.78796204467204,785.7573111174472,231.8692330467026,768.2960375370595,221.78796204467204,768.2960375370595,201.62542004061095" fill="rgb(112, 245, 195)"/><polygon points="750.8347639566717,231.8692330467026,768.2960375370594,221.78796204467204,785.7573111174471,231.8692330467026,785.7573111174471,252.03177505076368,768.2960375370594,262.11304605279423,750.8347639566717,252.03177505076368,750.8347639566717,231.8692330467026" fill="rgb(112, 245, 195)"/><polygon points="768.2960375370595,262.1130460527942,785.7573111174472,252.03177505076366,803.2185846978349,262.1130460527942,803.2185846978349,282.2755880568553,785.7573111174472,292.35685905888585,768.2960375370595,282.2755880568553,768.2960375370595,262.1130460527942" fill="rgb(112, 245, 195)"/><polygon points="750.8347639566717,292.3568590588859,768.2960375370594,282.2755880568553,785.7573111174471,292.3568590588859,785.7573111174471,312.51940106294694,768.2960375370594,322.6006720649775,750.8347639566717,312.51940106294694,750.8347639566717,292.3568590588859" fill="rgb(112, 245, 195)"/><polygon points="785.7573111174472,110.89398102233602,803.2185846978349,100.81271002030547,820.6798582782226,110.89398102233602,820.6798582782226,131.05652302639712,803.2185846978349,141.13779402842766,785.7573111174472,131.05652302639712,785.7573111174472,110.89398102233602" fill="rgb(112, 245, 195)"/><polygon points="803.2185846978349,141.13779402842766,820.6798582782226,131.05652302639712,838.1411318586103,141.13779402842766,838.1411318586103,161.30033603248876,820.6798582782226,171.3816070345193,803.2185846978349,161.30033603248876,803.2185846978349,141.13779402842766" fill="rgb(112, 245, 195)"/><polygon points="785.7573111174472,171.3816070345193,803.2185846978349,161.30033603248876,820.6798582782226,171.3816070345193,820.6798582782226,191.5441490385804,803.2185846978349,201.62542004061095,785.7573111174472,191.5441490385804,785.7573111174472,171.3816070345193" fill="rgb(112, 245, 195)"/><polygon points="803.2185846978349,201.62542004061095,820.6798582782226,191.5441490385804,838.1411318586103,201.62542004061095,838.1411318586103,221.78796204467204,820.6798582782226,231.8692330467026,803.2185846978349,221.78796204467204,803.2185846978349,201.62542004061095" fill="rgb(112, 245, 195)"/><polygon points="785.7573111174472,231.8692330467026,803.2185846978349,221.78796204467204,820.6798582782226,231.8692330467026,820.6798582782226,252.03177505076368,803.2185846978349,262.11304605279423,785.7573111174472,252.03177505076368,785.7573111174472,231.8692330467026" fill="rgb(112, 245, 195)"/><polygon points="803.2185846978349,262.1130460527942,820.6798582782226,252.03177505076366,838.1411318586103,262.1130460527942,838.1411318586103,282.2755880568553,820.6798582782226,292.35685905888585,803.2185846978349,282.2755880568553,803.2185846978349,262.1130460527942" fill="rgb(112, 245, 195)"/><polygon points="820.6798582782227,110.89398102233602,838.1411318586104,100.81271002030547,855.6024054389981,110.89398102233602,855.6024054389981,131.05652302639712,838.1411318586104,141.13779402842766,820.6798582782227,131.05652302639712,820.6798582782227,110.89398102233602" fill="rgb(112, 245, 195)"/><polygon points="838.1411318586104,141.13779402842766,855.6024054389981,131.05652302639712,873.0636790193857,141.13779402842766,873.0636790193857,161.30033603248876,855.6024054389981,171.3816070345193,838.1411318586104,161.30033603248876,838.1411318586104,141.13779402842766" fill="rgb(112, 245, 195)"/><polygon points="820.6798582782227,171.3816070345193,838.1411318586104,161.30033603248876,855.6024054389981,171.3816070345193,855.6024054389981,191.5441490385804,838.1411318586104,201.62542004061095,820.6798582782227,191.5441490385804,820.6798582782227,171.3816070345193" fill="rgb(112, 245, 195)"/><polygon points="838.1411318586104,201.62542004061095,855.6024054389981,191.5441490385804,873.0636790193857,201.62542004061095,873.0636790193857,221.78796204467204,855.6024054389981,231.8692330467026,838.1411318586104,221.78796204467204,838.1411318586104,201.62542004061095" fill="rgb(112, 245, 195)"/><polygon points="820.6798582782227,231.8692330467026,838.1411318586104,221.78796204467204,855.6024054389981,231.8692330467026,855.6024054389981,252.03177505076368,838.1411318586104,262.11304605279423,820.6798582782227,252.03177505076368,820.6798582782227,231.8692330467026" fill="rgb(112, 245, 195)"/><polygon points="855.6024054389981,171.3816070345193,873.0636790193857,161.30033603248876,890.5249525997734,171.3816070345193,890.5249525997734,191.5441490385804,873.0636790193857,201.62542004061095,855.6024054389981,191.5441490385804,855.6024054389981,171.3816070345193" fill="rgb(112, 245, 195)"/></g><g id="Oruro"><polygon points="768.2960375370595,322.6006720649775,785.7573111174472,312.519401062947,803.2185846978349,322.6006720649775,803.2185846978349,342.76321406903867,785.7573111174472,352.8444850710692,768.2960375370595,342.76321406903867,768.2960375370595,322.6006720649775" fill="rgb(221, 245, 112)"/><polygon points="803.2185846978349,322.6006720649775,820.6798582782226,312.519401062947,838.1411318586103,322.6006720649775,838.1411318586103,342.76321406903867,820.6798582782226,352.8444850710692,803.2185846978349,342.76321406903867,803.2185846978349,322.6006720649775" fill="rgb(221, 245, 112)"/><polygon points="785.7573111174472,352.84448507106913,803.2185846978349,342.7632140690386,820.6798582782226,352.84448507106913,820.6798582782226,373.0070270751303,803.2185846978349,383.0882980771608,785.7573111174472,373.0070270751303,785.7573111174472,352.84448507106913" fill="rgb(221, 245, 112)"/><polygon points="785.7573111174472,292.3568590588859,803.2185846978349,282.2755880568553,820.6798582782226,292.3568590588859,820.6798582782226,312.51940106294694,803.2185846978349,322.6006720649775,785.7573111174472,312.51940106294694,785.7573111174472,292.3568590588859" fill="rgb(221, 245, 112)"/></g><g id="Potosi"><polygon points="803.2185846978349,383.08829807716074,820.6798582782226,373.0070270751302,838.1411318586103,383.08829807716074,838.1411318586103,403.2508400812219,820.6798582782226,413.3321110832524,803.2185846978349,403.2508400812219,803.2185846978349,383.08829807716074" fill="rgb(245, 205, 112)"/><polygon points="785.7573111174472,413.33211108325247,803.2185846978349,403.2508400812219,820.6798582782226,413.33211108325247,820.6798582782226,433.4946530873135,803.2185846978349,443.5759240893441,785.7573111174472,433.4946530873135,785.7573111174472,413.33211108325247" fill="rgb(245, 205, 112)"/><polygon points="820.6798582782227,352.84448507106913,838.1411318586104,342.7632140690386,855.6024054389981,352.84448507106913,855.6024054389981,373.0070270751303,838.1411318586104,383.0882980771608,820.6798582782227,373.0070270751303,820.6798582782227,352.84448507106913" fill="rgb(245, 205, 112)"/><polygon points="838.1411318586104,383.08829807716074,855.6024054389981,373.0070270751302,873.0636790193857,383.08829807716074,873.0636790193857,403.2508400812219,855.6024054389981,413.3321110832524,838.1411318586104,403.2508400812219,838.1411318586104,383.08829807716074" fill="rgb(245, 205, 112)"/><polygon points="820.6798582782227,413.33211108325247,838.1411318586104,403.2508400812219,855.6024054389981,413.33211108325247,855.6024054389981,433.4946530873135,838.1411318586104,443.5759240893441,820.6798582782227,433.4946530873135,820.6798582782227,413.33211108325247" fill="rgb(245, 205, 112)"/></g><g id="Pando"><polygon points="838.1411318586104,80.65016801624438,855.6024054389981,70.56889701421383,873.0636790193857,80.65016801624438,873.0636790193857,100.81271002030547,855.6024054389981,110.89398102233602,838.1411318586104,100.81271002030547,838.1411318586104,80.65016801624438" fill="rgb(157, 245, 112)"/></g><g id="Cochabamba"><polygon points="838.1411318586104,262.1130460527942,855.6024054389981,252.03177505076366,873.0636790193857,262.1130460527942,873.0636790193857,282.2755880568553,855.6024054389981,292.35685905888585,838.1411318586104,282.2755880568553,838.1411318586104,262.1130460527942" fill="rgb(245, 240, 112)"/><polygon points="820.6798582782227,292.3568590588859,838.1411318586104,282.2755880568553,855.6024054389981,292.3568590588859,855.6024054389981,312.51940106294694,838.1411318586104,322.6006720649775,820.6798582782227,312.51940106294694,820.6798582782227,292.3568590588859" fill="rgb(245, 240, 112)"/><polygon points="838.1411318586104,322.6006720649775,855.6024054389981,312.519401062947,873.0636790193857,322.6006720649775,873.0636790193857,342.76321406903867,855.6024054389981,352.8444850710692,838.1411318586104,342.76321406903867,838.1411318586104,322.6006720649775" fill="rgb(245, 240, 112)"/><polygon points="873.0636790193857,201.62542004061095,890.5249525997734,191.5441490385804,907.9862261801611,201.62542004061095,907.9862261801611,221.78796204467204,890.5249525997734,231.8692330467026,873.0636790193857,221.78796204467204,873.0636790193857,201.62542004061095" fill="rgb(245, 240, 112)"/><polygon points="855.6024054389981,231.8692330467026,873.0636790193857,221.78796204467204,890.5249525997734,231.8692330467026,890.5249525997734,252.03177505076368,873.0636790193857,262.11304605279423,855.6024054389981,252.03177505076368,855.6024054389981,231.8692330467026" fill="rgb(245, 240, 112)"/><polygon points="873.0636790193857,262.1130460527942,890.5249525997734,252.03177505076366,907.9862261801611,262.1130460527942,907.9862261801611,282.2755880568553,890.5249525997734,292.35685905888585,873.0636790193857,282.2755880568553,873.0636790193857,262.1130460527942" fill="rgb(245, 240, 112)"/><polygon points="855.6024054389981,292.3568590588859,873.0636790193857,282.2755880568553,890.5249525997734,292.3568590588859,890.5249525997734,312.51940106294694,873.0636790193857,322.6006720649775,855.6024054389981,312.51940106294694,855.6024054389981,292.3568590588859" fill="rgb(245, 240, 112)"/><polygon points="873.0636790193857,322.6006720649775,890.5249525997734,312.519401062947,907.9862261801611,322.6006720649775,907.9862261801611,342.76321406903867,890.5249525997734,352.8444850710692,873.0636790193857,342.76321406903867,873.0636790193857,322.6006720649775" fill="rgb(245, 240, 112)"/><polygon points="890.5249525997735,231.8692330467026,907.9862261801612,221.78796204467204,925.4474997605489,231.8692330467026,925.4474997605489,252.03177505076368,907.9862261801612,262.11304605279423,890.5249525997735,252.03177505076368,890.5249525997735,231.8692330467026" fill="rgb(245, 240, 112)"/><polygon points="907.9862261801612,262.1130460527942,925.4474997605489,252.03177505076366,942.9087733409366,262.1130460527942,942.9087733409366,282.2755880568553,925.4474997605489,292.35685905888585,907.9862261801612,282.2755880568553,907.9862261801612,262.1130460527942" fill="rgb(245, 240, 112)"/><polygon points="890.5249525997735,292.3568590588859,907.9862261801612,282.2755880568553,925.4474997605489,292.3568590588859,925.4474997605489,312.51940106294694,907.9862261801612,322.6006720649775,890.5249525997735,312.51940106294694,890.5249525997735,292.3568590588859" fill="rgb(245, 240, 112)"/><polygon points="907.9862261801612,322.6006720649775,925.4474997605489,312.519401062947,942.9087733409366,322.6006720649775,942.9087733409366,342.76321406903867,925.4474997605489,352.8444850710692,907.9862261801612,342.76321406903867,907.9862261801612,322.6006720649775" fill="rgb(245, 240, 112)"/><polygon points="925.4474997605489,292.3568590588859,942.9087733409366,282.2755880568553,960.3700469213243,292.3568590588859,960.3700469213243,312.51940106294694,942.9087733409366,322.6006720649775,925.4474997605489,312.51940106294694,925.4474997605489,292.3568590588859" fill="rgb(245, 240, 112)"/><polygon points="855.6024054389981,352.84448507106913,873.0636790193857,342.7632140690386,890.5249525997734,352.84448507106913,890.5249525997734,373.0070270751303,873.0636790193857,383.0882980771608,855.6024054389981,373.0070270751303,855.6024054389981,352.84448507106913" fill="rgb(245, 240, 112)"/></g><g id="El Beni"><polygon points="855.6024054389981,110.89398102233602,873.0636790193857,100.81271002030547,890.5249525997734,110.89398102233602,890.5249525997734,131.05652302639712,873.0636790193857,141.13779402842766,855.6024054389981,131.05652302639712,855.6024054389981,110.89398102233602" fill="rgb(186, 245, 112)"/><polygon points="873.0636790193857,141.13779402842766,890.5249525997734,131.05652302639712,907.9862261801611,141.13779402842766,907.9862261801611,161.30033603248876,890.5249525997734,171.3816070345193,873.0636790193857,161.30033603248876,873.0636790193857,141.13779402842766" fill="rgb(186, 245, 112)"/><polygon points="890.5249525997735,171.3816070345193,907.9862261801612,161.30033603248876,925.4474997605489,171.3816070345193,925.4474997605489,191.5441490385804,907.9862261801612,201.62542004061095,890.5249525997735,191.5441490385804,890.5249525997735,171.3816070345193" fill="rgb(186, 245, 112)"/></g><g id="Chuquisaca"><polygon points="873.0636790193857,383.08829807716074,890.5249525997734,373.0070270751302,907.9862261801611,383.08829807716074,907.9862261801611,403.2508400812219,890.5249525997734,413.3321110832524,873.0636790193857,403.2508400812219,873.0636790193857,383.08829807716074" fill="rgb(171, 245, 112)"/><polygon points="890.5249525997735,352.84448507106913,907.9862261801612,342.7632140690386,925.4474997605489,352.84448507106913,925.4474997605489,373.0070270751303,907.9862261801612,383.0882980771608,890.5249525997735,373.0070270751303,890.5249525997735,352.84448507106913" fill="rgb(171, 245, 112)"/><polygon points="907.9862261801612,383.08829807716074,925.4474997605489,373.0070270751302,942.9087733409366,383.08829807716074,942.9087733409366,403.2508400812219,925.4474997605489,413.3321110832524,907.9862261801612,403.2508400812219,907.9862261801612,383.08829807716074" fill="rgb(171, 245, 112)"/><polygon points="942.9087733409366,383.08829807716074,960.3700469213243,373.0070270751302,977.831320501712,383.08829807716074,977.831320501712,403.2508400812219,960.3700469213243,413.3321110832524,942.9087733409366,403.2508400812219,942.9087733409366,383.08829807716074" fill="rgb(171, 245, 112)"/></g><g id="Tarija"><polygon points="855.6024054389981,413.33211108325247,873.0636790193857,403.2508400812219,890.5249525997734,413.33211108325247,890.5249525997734,433.4946530873135,873.0636790193857,443.5759240893441,855.6024054389981,433.4946530873135,855.6024054389981,413.33211108325247" fill="rgb(143, 245, 112)"/><polygon points="873.0636790193857,443.5759240893441,890.5249525997734,433.49465308731357,907.9862261801611,443.5759240893441,907.9862261801611,463.73846609340524,890.5249525997734,473.81973709543576,873.0636790193857,463.73846609340524,873.0636790193857,443.5759240893441" fill="rgb(143, 245, 112)"/><polygon points="890.5249525997735,413.33211108325247,907.9862261801612,403.2508400812219,925.4474997605489,413.33211108325247,925.4474997605489,433.4946530873135,907.9862261801612,443.5759240893441,890.5249525997735,433.4946530873135,890.5249525997735,413.33211108325247" fill="rgb(143, 245, 112)"/><polygon points="925.4474997605489,413.33211108325247,942.9087733409366,403.2508400812219,960.3700469213243,413.33211108325247,960.3700469213243,433.4946530873135,942.9087733409366,443.5759240893441,925.4474997605489,433.4946530873135,925.4474997605489,413.33211108325247" fill="rgb(143, 245, 112)"/></g><g id="Santa Cruz"><polygon points="907.9862261801612,201.62542004061095,925.4474997605489,191.5441490385804,942.9087733409366,201.62542004061095,942.9087733409366,221.78796204467204,925.4474997605489,231.8692330467026,907.9862261801612,221.78796204467204,907.9862261801612,201.62542004061095" fill="rgb(112, 245, 145)"/><polygon points="925.4474997605489,171.3816070345193,942.9087733409366,161.30033603248876,960.3700469213243,171.3816070345193,960.3700469213243,191.5441490385804,942.9087733409366,201.62542004061095,925.4474997605489,191.5441490385804,925.4474997605489,171.3816070345193" fill="rgb(112, 245, 145)"/><polygon points="942.9087733409366,201.62542004061095,960.3700469213243,191.5441490385804,977.831320501712,201.62542004061095,977.831320501712,221.78796204467204,960.3700469213243,231.8692330467026,942.9087733409366,221.78796204467204,942.9087733409366,201.62542004061095" fill="rgb(112, 245, 145)"/><polygon points="925.4474997605489,231.8692330467026,942.9087733409366,221.78796204467204,960.3700469213243,231.8692330467026,960.3700469213243,252.03177505076368,942.9087733409366,262.11304605279423,925.4474997605489,252.03177505076368,925.4474997605489,231.8692330467026" fill="rgb(112, 245, 145)"/><polygon points="942.9087733409366,262.1130460527942,960.3700469213243,252.03177505076366,977.831320501712,262.1130460527942,977.831320501712,282.2755880568553,960.3700469213243,292.35685905888585,942.9087733409366,282.2755880568553,942.9087733409366,262.1130460527942" fill="rgb(112, 245, 145)"/><polygon points="942.9087733409366,322.6006720649775,960.3700469213243,312.519401062947,977.831320501712,322.6006720649775,977.831320501712,342.76321406903867,960.3700469213243,352.8444850710692,942.9087733409366,342.76321406903867,942.9087733409366,322.6006720649775" fill="rgb(112, 245, 145)"/><polygon points="925.4474997605489,352.84448507106913,942.9087733409366,342.7632140690386,960.3700469213243,352.84448507106913,960.3700469213243,373.0070270751303,942.9087733409366,383.0882980771608,925.4474997605489,373.0070270751303,925.4474997605489,352.84448507106913" fill="rgb(112, 245, 145)"/><polygon points="977.8313205017121,201.62542004061095,995.2925940820998,191.5441490385804,1012.7538676624874,201.62542004061095,1012.7538676624874,221.78796204467204,995.2925940820998,231.8692330467026,977.8313205017121,221.78796204467204,977.8313205017121,201.62542004061095" fill="rgb(112, 245, 145)"/><polygon points="960.3700469213244,231.8692330467026,977.8313205017121,221.78796204467204,995.2925940820998,231.8692330467026,995.2925940820998,252.03177505076368,977.8313205017121,262.11304605279423,960.3700469213244,252.03177505076368,960.3700469213244,231.8692330467026" fill="rgb(112, 245, 145)"/><polygon points="977.8313205017121,262.1130460527942,995.2925940820998,252.03177505076366,1012.7538676624874,262.1130460527942,1012.7538676624874,282.2755880568553,995.2925940820998,292.35685905888585,977.8313205017121,282.2755880568553,977.8313205017121,262.1130460527942" fill="rgb(112, 245, 145)"/><polygon points="960.3700469213244,292.3568590588859,977.8313205017121,282.2755880568553,995.2925940820998,292.3568590588859,995.2925940820998,312.51940106294694,977.8313205017121,322.6006720649775,960.3700469213244,312.51940106294694,960.3700469213244,292.3568590588859" fill="rgb(112, 245, 145)"/><polygon points="977.8313205017121,322.6006720649775,995.2925940820998,312.519401062947,1012.7538676624874,322.6006720649775,1012.7538676624874,342.76321406903867,995.2925940820998,352.8444850710692,977.8313205017121,342.76321406903867,977.8313205017121,322.6006720649775" fill="rgb(112, 245, 145)"/><polygon points="960.3700469213244,352.84448507106913,977.8313205017121,342.7632140690386,995.2925940820998,352.84448507106913,995.2925940820998,373.0070270751303,977.8313205017121,383.0882980771608,960.3700469213244,373.0070270751303,960.3700469213244,352.84448507106913" fill="rgb(112, 245, 145)"/><polygon points="995.2925940820998,231.8692330467026,1012.7538676624874,221.78796204467204,1030.2151412428752,231.8692330467026,1030.2151412428752,252.03177505076368,1012.7538676624874,262.11304605279423,995.2925940820998,252.03177505076368,995.2925940820998,231.8692330467026" fill="rgb(112, 245, 145)"/><polygon points="1012.7538676624876,262.1130460527942,1030.2151412428752,252.03177505076366,1047.676414823263,262.1130460527942,1047.676414823263,282.2755880568553,1030.2151412428752,292.35685905888585,1012.7538676624876,282.2755880568553,1012.7538676624876,262.1130460527942" fill="rgb(112, 245, 145)"/><polygon points="995.2925940820998,292.3568590588859,1012.7538676624874,282.2755880568553,1030.2151412428752,292.3568590588859,1030.2151412428752,312.51940106294694,1012.7538676624874,322.6006720649775,995.2925940820998,312.51940106294694,995.2925940820998,292.3568590588859" fill="rgb(112, 245, 145)"/><polygon points="1012.7538676624876,322.6006720649775,1030.2151412428752,312.519401062947,1047.676414823263,322.6006720649775,1047.676414823263,342.76321406903867,1030.2151412428752,352.8444850710692,1012.7538676624876,342.76321406903867,1012.7538676624876,322.6006720649775" fill="rgb(112, 245, 145)"/><polygon points="1047.6764148232628,262.1130460527942,1065.1376884036506,252.03177505076366,1082.5989619840384,262.1130460527942,1082.5989619840384,282.2755880568553,1065.1376884036506,292.35685905888585,1047.6764148232628,282.2755880568553,1047.6764148232628,262.1130460527942" fill="rgb(112, 245, 145)"/><polygon points="1030.215141242875,292.3568590588859,1047.6764148232628,282.2755880568553,1065.1376884036506,292.3568590588859,1065.1376884036506,312.51940106294694,1047.6764148232628,322.6006720649775,1030.215141242875,312.51940106294694,1030.215141242875,292.3568590588859" fill="rgb(112, 245, 145)"/><polygon points="1047.6764148232628,322.6006720649775,1065.1376884036506,312.519401062947,1082.5989619840384,322.6006720649775,1082.5989619840384,342.76321406903867,1065.1376884036506,352.8444850710692,1047.6764148232628,342.76321406903867,1047.6764148232628,322.6006720649775" fill="rgb(112, 245, 145)"/><polygon points="1065.1376884036506,292.3568590588859,1082.5989619840384,282.2755880568553,1100.0602355644262,292.3568590588859,1100.0602355644262,312.51940106294694,1082.5989619840384,322.6006720649775,1065.1376884036506,312.51940106294694,1065.1376884036506,292.3568590588859" fill="rgb(112, 245, 145)"/></g></svg>